<?xml version="1.0" encoding="UTF-8" standalone="no"?>
<!DOCTYPE svg PUBLIC "-//W3C//DTD SVG 1.1//EN"
 "http://www.w3.org/Graphics/SVG/1.1/DTD/svg11.dtd">
<!-- Generated by graphviz version 2.28.0 (20120824.1043)
 -->
<!-- Title: args.c Pages: 1 -->
<svg width="422pt" height="204pt"
 viewBox="0.00 0.00 422.00 204.00" xmlns="http://www.w3.org/2000/svg" xmlns:xlink="http://www.w3.org/1999/xlink">
<g id="graph1" class="graph" transform="scale(1 1) rotate(0) translate(4 200)">
<title>args.c</title>
<!-- Node1 -->
<g id="node1" class="node"><title>Node1</title>
<polygon fill="#bfbfbf" stroke="black" points="152.384,-175 152.384,-195 195.616,-195 195.616,-175 152.384,-175"/>
<text text-anchor="middle" x="174" y="-181" font-family="Helvetica,sans-Serif" font-size="10.00">args.c</text>
</g>
<!-- Node2 -->
<g id="node3" class="node"><title>Node2</title>
<polygon fill="none" stroke="#bfbfbf" points="-0.950684,-117 -0.950684,-137 68.9507,-137 68.9507,-117 -0.950684,-117"/>
<text text-anchor="middle" x="34" y="-123" font-family="Helvetica,sans-Serif" font-size="10.00">sys/mman.h</text>
</g>
<!-- Node1&#45;&gt;Node2 -->
<g id="edge2" class="edge"><title>Node1&#45;&gt;Node2</title>
<path fill="none" stroke="midnightblue" d="M152.125,-175.25C129.076,-166.03 92.5346,-151.414 66.195,-140.878"/>
<polygon fill="midnightblue" stroke="midnightblue" points="67.2337,-137.524 56.649,-137.06 64.6339,-144.023 67.2337,-137.524"/>
</g>
<!-- Node3 -->
<g id="node5" class="node"><title>Node3</title>
<polygon fill="none" stroke="#bfbfbf" points="87.1577,-117 87.1577,-137 134.842,-137 134.842,-117 87.1577,-117"/>
<text text-anchor="middle" x="111" y="-123" font-family="Helvetica,sans-Serif" font-size="10.00">errno.h</text>
</g>
<!-- Node1&#45;&gt;Node3 -->
<g id="edge4" class="edge"><title>Node1&#45;&gt;Node3</title>
<path fill="none" stroke="midnightblue" d="M163.597,-174.753C154.148,-166.353 140.011,-153.787 128.772,-143.798"/>
<polygon fill="midnightblue" stroke="midnightblue" points="131.009,-141.103 121.21,-137.075 126.358,-146.335 131.009,-141.103"/>
</g>
<!-- Node4 -->
<g id="node7" class="node"><title>Node4</title>
<polygon fill="none" stroke="#bfbfbf" points="152.66,-117 152.66,-137 195.34,-137 195.34,-117 152.66,-117"/>
<text text-anchor="middle" x="174" y="-123" font-family="Helvetica,sans-Serif" font-size="10.00">fcntl.h</text>
</g>
<!-- Node1&#45;&gt;Node4 -->
<g id="edge6" class="edge"><title>Node1&#45;&gt;Node4</title>
<path fill="none" stroke="midnightblue" d="M174,-174.753C174,-167.25 174,-156.424 174,-147.078"/>
<polygon fill="midnightblue" stroke="midnightblue" points="177.5,-147.075 174,-137.075 170.5,-147.075 177.5,-147.075"/>
</g>
<!-- Node5 -->
<g id="node9" class="node"><title>Node5</title>
<polygon fill="none" stroke="#bfbfbf" points="213.604,-117 213.604,-137 262.396,-137 262.396,-117 213.604,-117"/>
<text text-anchor="middle" x="238" y="-123" font-family="Helvetica,sans-Serif" font-size="10.00">string.h</text>
</g>
<!-- Node1&#45;&gt;Node5 -->
<g id="edge8" class="edge"><title>Node1&#45;&gt;Node5</title>
<path fill="none" stroke="midnightblue" d="M184.568,-174.753C194.168,-166.353 208.529,-153.787 219.946,-143.798"/>
<polygon fill="midnightblue" stroke="midnightblue" points="222.407,-146.294 227.628,-137.075 217.798,-141.026 222.407,-146.294"/>
</g>
<!-- Node6 -->
<g id="node11" class="node"><title>Node6</title>
<a xlink:href="libsandbox-internal_8h.xhtml" target="_top" xlink:title="Private API.">
<polygon fill="none" stroke="black" points="280.86,-117 280.86,-137 389.14,-137 389.14,-117 280.86,-117"/>
<text text-anchor="middle" x="335" y="-123" font-family="Helvetica,sans-Serif" font-size="10.00">libsandbox&#45;internal.h</text>
</a>
</g>
<!-- Node1&#45;&gt;Node6 -->
<g id="edge10" class="edge"><title>Node1&#45;&gt;Node6</title>
<path fill="none" stroke="midnightblue" d="M195.713,-176.448C222.279,-167.207 267.625,-151.435 299.338,-140.404"/>
<polygon fill="midnightblue" stroke="midnightblue" points="300.819,-143.595 309.114,-137.004 298.52,-136.983 300.819,-143.595"/>
</g>
<!-- Node7 -->
<g id="node13" class="node"><title>Node7</title>
<a xlink:href="libsandbox_8h.xhtml" target="_top" xlink:title="Public API.">
<polygon fill="none" stroke="black" points="253.924,-59 253.924,-79 326.076,-79 326.076,-59 253.924,-59"/>
<text text-anchor="middle" x="290" y="-65" font-family="Helvetica,sans-Serif" font-size="10.00">libsandbox.h</text>
</a>
</g>
<!-- Node6&#45;&gt;Node7 -->
<g id="edge12" class="edge"><title>Node6&#45;&gt;Node7</title>
<path fill="none" stroke="midnightblue" d="M327.569,-116.753C321.082,-108.68 311.501,-96.7571 303.639,-86.9727"/>
<polygon fill="midnightblue" stroke="midnightblue" points="306.285,-84.6779 297.293,-79.0752 300.828,-89.0627 306.285,-84.6779"/>
</g>
<!-- Node10 -->
<g id="node19" class="node"><title>Node10</title>
<polygon fill="none" stroke="#bfbfbf" points="343.769,-59 343.769,-79 414.231,-79 414.231,-59 343.769,-59"/>
<text text-anchor="middle" x="379" y="-65" font-family="Helvetica,sans-Serif" font-size="10.00">sys/param.h</text>
</g>
<!-- Node6&#45;&gt;Node10 -->
<g id="edge18" class="edge"><title>Node6&#45;&gt;Node10</title>
<path fill="none" stroke="midnightblue" d="M342.266,-116.753C348.609,-108.68 357.977,-96.7571 365.664,-86.9727"/>
<polygon fill="midnightblue" stroke="midnightblue" points="368.443,-89.1008 371.869,-79.0752 362.939,-84.776 368.443,-89.1008"/>
</g>
<!-- Node8 -->
<g id="node15" class="node"><title>Node8</title>
<polygon fill="none" stroke="#bfbfbf" points="213.99,-1 213.99,-21 280.01,-21 280.01,-1 213.99,-1"/>
<text text-anchor="middle" x="247" y="-7" font-family="Helvetica,sans-Serif" font-size="10.00">sys/cdefs.h</text>
</g>
<!-- Node7&#45;&gt;Node8 -->
<g id="edge14" class="edge"><title>Node7&#45;&gt;Node8</title>
<path fill="none" stroke="midnightblue" d="M282.899,-58.7527C276.763,-50.7611 267.73,-38.9975 260.261,-29.2698"/>
<polygon fill="midnightblue" stroke="midnightblue" points="262.835,-26.8751 253.968,-21.0752 257.283,-31.1383 262.835,-26.8751"/>
</g>
<!-- Node9 -->
<g id="node17" class="node"><title>Node9</title>
<polygon fill="none" stroke="#bfbfbf" points="298.313,-1 298.313,-21 367.687,-21 367.687,-1 298.313,-1"/>
<text text-anchor="middle" x="333" y="-7" font-family="Helvetica,sans-Serif" font-size="10.00">libchannel.h</text>
</g>
<!-- Node7&#45;&gt;Node9 -->
<g id="edge16" class="edge"><title>Node7&#45;&gt;Node9</title>
<path fill="none" stroke="midnightblue" d="M297.101,-58.7527C303.237,-50.7611 312.27,-38.9975 319.739,-29.2698"/>
<polygon fill="midnightblue" stroke="midnightblue" points="322.717,-31.1383 326.032,-21.0752 317.165,-26.8751 322.717,-31.1383"/>
</g>
</g>
</svg>
