<?xml version="1.0" encoding="UTF-8" standalone="no"?>
<!DOCTYPE svg PUBLIC "-//W3C//DTD SVG 1.1//EN"
 "http://www.w3.org/Graphics/SVG/1.1/DTD/svg11.dtd">
<!-- Generated by graphviz version 2.28.0 (20120824.1043)
 -->
<!-- Title: libsandbox.c Pages: 1 -->
<svg width="355pt" height="204pt"
 viewBox="0.00 0.00 355.00 204.00" xmlns="http://www.w3.org/2000/svg" xmlns:xlink="http://www.w3.org/1999/xlink">
<g id="graph1" class="graph" transform="scale(1 1) rotate(0) translate(4 200)">
<title>libsandbox.c</title>
<!-- Node1 -->
<g id="node1" class="node"><title>Node1</title>
<polygon fill="#bfbfbf" stroke="black" points="171.205,-175 171.205,-195 242.795,-195 242.795,-175 171.205,-175"/>
<text text-anchor="middle" x="207" y="-181" font-family="Helvetica,sans-Serif" font-size="10.00">libsandbox.c</text>
</g>
<!-- Node2 -->
<g id="node3" class="node"><title>Node2</title>
<a xlink:href="libsandbox_8h.xhtml" target="_top" xlink:title="Public API.">
<polygon fill="none" stroke="black" points="39.9238,-59 39.9238,-79 112.076,-79 112.076,-59 39.9238,-59"/>
<text text-anchor="middle" x="76" y="-65" font-family="Helvetica,sans-Serif" font-size="10.00">libsandbox.h</text>
</a>
</g>
<!-- Node1&#45;&gt;Node2 -->
<g id="edge2" class="edge"><title>Node1&#45;&gt;Node2</title>
<path fill="none" stroke="midnightblue" d="M171.161,-177.837C146.444,-171.772 114.624,-160.071 95,-138 83.0577,-124.568 78.5625,-104.216 76.9013,-89.2761"/>
<polygon fill="midnightblue" stroke="midnightblue" points="80.3755,-88.8082 76.107,-79.1113 73.3968,-89.3536 80.3755,-88.8082"/>
</g>
<!-- Node5 -->
<g id="node9" class="node"><title>Node5</title>
<a xlink:href="libsandbox-internal_8h.xhtml" target="_top" xlink:title="Private API.">
<polygon fill="none" stroke="black" points="103.86,-117 103.86,-137 212.14,-137 212.14,-117 103.86,-117"/>
<text text-anchor="middle" x="158" y="-123" font-family="Helvetica,sans-Serif" font-size="10.00">libsandbox&#45;internal.h</text>
</a>
</g>
<!-- Node1&#45;&gt;Node5 -->
<g id="edge8" class="edge"><title>Node1&#45;&gt;Node5</title>
<path fill="none" stroke="midnightblue" d="M198.909,-174.753C191.773,-166.598 181.201,-154.516 172.592,-144.677"/>
<polygon fill="midnightblue" stroke="midnightblue" points="175.16,-142.296 165.941,-137.075 169.892,-146.906 175.16,-142.296"/>
</g>
<!-- Node7 -->
<g id="node14" class="node"><title>Node7</title>
<polygon fill="none" stroke="#bfbfbf" points="230.214,-117 230.214,-137 281.786,-137 281.786,-117 230.214,-117"/>
<text text-anchor="middle" x="256" y="-123" font-family="Helvetica,sans-Serif" font-size="10.00">assert.h</text>
</g>
<!-- Node1&#45;&gt;Node7 -->
<g id="edge14" class="edge"><title>Node1&#45;&gt;Node7</title>
<path fill="none" stroke="midnightblue" d="M215.091,-174.753C222.227,-166.598 232.799,-154.516 241.408,-144.677"/>
<polygon fill="midnightblue" stroke="midnightblue" points="244.108,-146.906 248.059,-137.075 238.84,-142.296 244.108,-146.906"/>
</g>
<!-- Node8 -->
<g id="node16" class="node"><title>Node8</title>
<polygon fill="none" stroke="#bfbfbf" points="300.158,-117 300.158,-137 347.842,-137 347.842,-117 300.158,-117"/>
<text text-anchor="middle" x="324" y="-123" font-family="Helvetica,sans-Serif" font-size="10.00">stdlib.h</text>
</g>
<!-- Node1&#45;&gt;Node8 -->
<g id="edge16" class="edge"><title>Node1&#45;&gt;Node8</title>
<path fill="none" stroke="midnightblue" d="M226.058,-174.878C245.011,-165.807 274.301,-151.788 295.916,-141.442"/>
<polygon fill="midnightblue" stroke="midnightblue" points="297.441,-144.592 304.95,-137.118 294.419,-138.278 297.441,-144.592"/>
</g>
<!-- Node3 -->
<g id="node5" class="node"><title>Node3</title>
<polygon fill="none" stroke="#bfbfbf" points="-0.00976562,-1 -0.00976562,-21 66.0098,-21 66.0098,-1 -0.00976562,-1"/>
<text text-anchor="middle" x="33" y="-7" font-family="Helvetica,sans-Serif" font-size="10.00">sys/cdefs.h</text>
</g>
<!-- Node2&#45;&gt;Node3 -->
<g id="edge4" class="edge"><title>Node2&#45;&gt;Node3</title>
<path fill="none" stroke="midnightblue" d="M68.8994,-58.7527C62.763,-50.7611 53.7303,-38.9975 46.2608,-29.2698"/>
<polygon fill="midnightblue" stroke="midnightblue" points="48.8348,-26.8751 39.9685,-21.0752 43.2827,-31.1383 48.8348,-26.8751"/>
</g>
<!-- Node4 -->
<g id="node7" class="node"><title>Node4</title>
<polygon fill="none" stroke="#bfbfbf" points="84.313,-1 84.313,-21 153.687,-21 153.687,-1 84.313,-1"/>
<text text-anchor="middle" x="119" y="-7" font-family="Helvetica,sans-Serif" font-size="10.00">libchannel.h</text>
</g>
<!-- Node2&#45;&gt;Node4 -->
<g id="edge6" class="edge"><title>Node2&#45;&gt;Node4</title>
<path fill="none" stroke="midnightblue" d="M83.1006,-58.7527C89.237,-50.7611 98.2697,-38.9975 105.739,-29.2698"/>
<polygon fill="midnightblue" stroke="midnightblue" points="108.717,-31.1383 112.032,-21.0752 103.165,-26.8751 108.717,-31.1383"/>
</g>
<!-- Node5&#45;&gt;Node2 -->
<g id="edge10" class="edge"><title>Node5&#45;&gt;Node2</title>
<path fill="none" stroke="midnightblue" d="M144.459,-116.753C131.802,-108.109 112.683,-95.0518 97.8638,-84.9314"/>
<polygon fill="midnightblue" stroke="midnightblue" points="99.5206,-81.8245 89.2887,-79.0752 95.5728,-87.6052 99.5206,-81.8245"/>
</g>
<!-- Node6 -->
<g id="node12" class="node"><title>Node6</title>
<polygon fill="none" stroke="#bfbfbf" points="129.769,-59 129.769,-79 200.231,-79 200.231,-59 129.769,-59"/>
<text text-anchor="middle" x="165" y="-65" font-family="Helvetica,sans-Serif" font-size="10.00">sys/param.h</text>
</g>
<!-- Node5&#45;&gt;Node6 -->
<g id="edge12" class="edge"><title>Node5&#45;&gt;Node6</title>
<path fill="none" stroke="midnightblue" d="M159.156,-116.753C160.094,-109.25 161.447,-98.4238 162.615,-89.0781"/>
<polygon fill="midnightblue" stroke="midnightblue" points="166.098,-89.4321 163.866,-79.0752 159.152,-88.5638 166.098,-89.4321"/>
</g>
</g>
</svg>
