<?xml version="1.0" encoding="UTF-8" standalone="no"?>
<!DOCTYPE svg PUBLIC "-//W3C//DTD SVG 1.1//EN"
 "http://www.w3.org/Graphics/SVG/1.1/DTD/svg11.dtd">
<!-- Generated by graphviz version 2.28.0 (20120824.1043)
 -->
<!-- Title: libsandbox&#45;internal.h Pages: 1 -->
<svg width="274pt" height="88pt"
 viewBox="0.00 0.00 274.00 88.00" xmlns="http://www.w3.org/2000/svg" xmlns:xlink="http://www.w3.org/1999/xlink">
<g id="graph1" class="graph" transform="scale(1 1) rotate(0) translate(4 84)">
<title>libsandbox&#45;internal.h</title>
<!-- Node1 -->
<g id="node1" class="node"><title>Node1</title>
<polygon fill="#bfbfbf" stroke="black" points="64.8599,-59 64.8599,-79 173.14,-79 173.14,-59 64.8599,-59"/>
<text text-anchor="middle" x="119" y="-65" font-family="Helvetica,sans-Serif" font-size="10.00">libsandbox&#45;internal.h</text>
</g>
<!-- Node2 -->
<g id="node3" class="node"><title>Node2</title>
<a xlink:href="args_8c.xhtml" target="_top" xlink:title="Code for handling arguments to sandboxes.">
<polygon fill="none" stroke="black" points="-0.615723,-1 -0.615723,-21 42.6157,-21 42.6157,-1 -0.615723,-1"/>
<text text-anchor="middle" x="21" y="-7" font-family="Helvetica,sans-Serif" font-size="10.00">args.c</text>
</a>
</g>
<!-- Node1&#45;&gt;Node2 -->
<g id="edge2" class="edge"><title>Node1&#45;&gt;Node2</title>
<path fill="none" stroke="midnightblue" d="M94.0127,-53.7215C76.0356,-43.4489 52.3304,-29.9031 36.8816,-21.0752"/>
<polygon fill="midnightblue" stroke="midnightblue" points="92.3983,-56.8302 102.817,-58.7527 95.8714,-50.7524 92.3983,-56.8302"/>
</g>
<!-- Node3 -->
<g id="node5" class="node"><title>Node3</title>
<a xlink:href="libsandbox-capsicum_8c.xhtml" target="_top" xlink:title="Capsicum backend.">
<polygon fill="none" stroke="black" points="60.4214,-1 60.4214,-21 177.579,-21 177.579,-1 60.4214,-1"/>
<text text-anchor="middle" x="119" y="-7" font-family="Helvetica,sans-Serif" font-size="10.00">libsandbox&#45;capsicum.c</text>
</a>
</g>
<!-- Node1&#45;&gt;Node3 -->
<g id="edge4" class="edge"><title>Node1&#45;&gt;Node3</title>
<path fill="none" stroke="midnightblue" d="M119,-48.7065C119,-39.3384 119,-28.5262 119,-21.0752"/>
<polygon fill="midnightblue" stroke="midnightblue" points="115.5,-48.7527 119,-58.7527 122.5,-48.7528 115.5,-48.7527"/>
</g>
<!-- Node4 -->
<g id="node7" class="node"><title>Node4</title>
<a xlink:href="libsandbox_8c.xhtml" target="_top" xlink:title="Portable portion of the implementation.">
<polygon fill="none" stroke="black" points="195.205,-1 195.205,-21 266.795,-21 266.795,-1 195.205,-1"/>
<text text-anchor="middle" x="231" y="-7" font-family="Helvetica,sans-Serif" font-size="10.00">libsandbox.c</text>
</a>
</g>
<!-- Node1&#45;&gt;Node4 -->
<g id="edge6" class="edge"><title>Node1&#45;&gt;Node4</title>
<path fill="none" stroke="midnightblue" d="M146.713,-54.1437C167.355,-43.8227 194.951,-30.0245 212.85,-21.0752"/>
<polygon fill="midnightblue" stroke="midnightblue" points="144.874,-51.1501 137.495,-58.7527 148.004,-57.411 144.874,-51.1501"/>
</g>
</g>
</svg>
