<?xml version="1.0" encoding="UTF-8" standalone="no"?>
<!DOCTYPE svg PUBLIC "-//W3C//DTD SVG 1.1//EN"
 "http://www.w3.org/Graphics/SVG/1.1/DTD/svg11.dtd">
<!-- Generated by graphviz version 2.28.0 (20120824.1043)
 -->
<!-- Title: libsandbox.h Pages: 1 -->
<svg width="274pt" height="146pt"
 viewBox="0.00 0.00 274.00 146.00" xmlns="http://www.w3.org/2000/svg" xmlns:xlink="http://www.w3.org/1999/xlink">
<g id="graph1" class="graph" transform="scale(1 1) rotate(0) translate(4 142)">
<title>libsandbox.h</title>
<!-- Node1 -->
<g id="node1" class="node"><title>Node1</title>
<polygon fill="#bfbfbf" stroke="black" points="112.924,-117 112.924,-137 185.076,-137 185.076,-117 112.924,-117"/>
<text text-anchor="middle" x="149" y="-123" font-family="Helvetica,sans-Serif" font-size="10.00">libsandbox.h</text>
</g>
<!-- Node2 -->
<g id="node3" class="node"><title>Node2</title>
<a xlink:href="libsandbox-internal_8h.xhtml" target="_top" xlink:title="Private API.">
<polygon fill="none" stroke="black" points="94.8599,-59 94.8599,-79 203.14,-79 203.14,-59 94.8599,-59"/>
<text text-anchor="middle" x="149" y="-65" font-family="Helvetica,sans-Serif" font-size="10.00">libsandbox&#45;internal.h</text>
</a>
</g>
<!-- Node1&#45;&gt;Node2 -->
<g id="edge2" class="edge"><title>Node1&#45;&gt;Node2</title>
<path fill="none" stroke="midnightblue" d="M149,-106.707C149,-97.3384 149,-86.5262 149,-79.0752"/>
<polygon fill="midnightblue" stroke="midnightblue" points="145.5,-106.753 149,-116.753 152.5,-106.753 145.5,-106.753"/>
</g>
<!-- Node4 -->
<g id="node7" class="node"><title>Node4</title>
<a xlink:href="libsandbox-capsicum_8c.xhtml" target="_top" xlink:title="Capsicum backend.">
<polygon fill="none" stroke="black" points="-0.578613,-1 -0.578613,-21 116.579,-21 116.579,-1 -0.578613,-1"/>
<text text-anchor="middle" x="58" y="-7" font-family="Helvetica,sans-Serif" font-size="10.00">libsandbox&#45;capsicum.c</text>
</a>
</g>
<!-- Node1&#45;&gt;Node4 -->
<g id="edge10" class="edge"><title>Node1&#45;&gt;Node4</title>
<path fill="none" stroke="midnightblue" d="M123.013,-111.651C110.478,-103.673 96.0242,-92.774 86,-80 71.6552,-61.7201 63.5548,-35.0626 60.0704,-21.1786"/>
<polygon fill="midnightblue" stroke="midnightblue" points="121.346,-114.733 131.711,-116.929 124.978,-108.749 121.346,-114.733"/>
</g>
<!-- Node5 -->
<g id="node9" class="node"><title>Node5</title>
<a xlink:href="libsandbox_8c.xhtml" target="_top" xlink:title="Portable portion of the implementation.">
<polygon fill="none" stroke="black" points="195.205,-1 195.205,-21 266.795,-21 266.795,-1 195.205,-1"/>
<text text-anchor="middle" x="231" y="-7" font-family="Helvetica,sans-Serif" font-size="10.00">libsandbox.c</text>
</a>
</g>
<!-- Node1&#45;&gt;Node5 -->
<g id="edge12" class="edge"><title>Node1&#45;&gt;Node5</title>
<path fill="none" stroke="midnightblue" d="M176.153,-111.816C188.728,-103.984 202.872,-93.1644 212,-80 224.712,-61.6671 228.952,-35.0319 230.342,-21.1653"/>
<polygon fill="midnightblue" stroke="midnightblue" points="174.215,-108.895 167.368,-116.981 177.763,-114.93 174.215,-108.895"/>
</g>
<!-- Node3 -->
<g id="node5" class="node"><title>Node3</title>
<a xlink:href="args_8c.xhtml" target="_top" xlink:title="Code for handling arguments to sandboxes.">
<polygon fill="none" stroke="black" points="134.384,-1 134.384,-21 177.616,-21 177.616,-1 134.384,-1"/>
<text text-anchor="middle" x="156" y="-7" font-family="Helvetica,sans-Serif" font-size="10.00">args.c</text>
</a>
</g>
<!-- Node2&#45;&gt;Node3 -->
<g id="edge4" class="edge"><title>Node2&#45;&gt;Node3</title>
<path fill="none" stroke="midnightblue" d="M151.412,-48.7065C152.583,-39.3384 153.934,-28.5262 154.866,-21.0752"/>
<polygon fill="midnightblue" stroke="midnightblue" points="147.923,-48.3958 150.156,-58.7527 154.869,-49.2641 147.923,-48.3958"/>
</g>
<!-- Node2&#45;&gt;Node4 -->
<g id="edge6" class="edge"><title>Node2&#45;&gt;Node4</title>
<path fill="none" stroke="midnightblue" d="M125.337,-53.438C108.701,-43.2008 86.9609,-29.8221 72.7472,-21.0752"/>
<polygon fill="midnightblue" stroke="midnightblue" points="123.622,-56.4925 133.973,-58.7527 127.291,-50.5309 123.622,-56.4925"/>
</g>
<!-- Node2&#45;&gt;Node5 -->
<g id="edge8" class="edge"><title>Node2&#45;&gt;Node5</title>
<path fill="none" stroke="midnightblue" d="M171.16,-52.8661C186.036,-42.7069 205.141,-29.6601 217.711,-21.0752"/>
<polygon fill="midnightblue" stroke="midnightblue" points="168.825,-50.2228 162.541,-58.7527 172.773,-56.0034 168.825,-50.2228"/>
</g>
</g>
</svg>
