<?xml version="1.0" encoding="UTF-8" standalone="no"?>
<!DOCTYPE svg PUBLIC "-//W3C//DTD SVG 1.1//EN"
 "http://www.w3.org/Graphics/SVG/1.1/DTD/svg11.dtd">
<!-- Generated by graphviz version 2.28.0 (20120824.1043)
 -->
<!-- Title: libsandbox.h Pages: 1 -->
<svg width="161pt" height="88pt"
 viewBox="0.00 0.00 161.00 88.00" xmlns="http://www.w3.org/2000/svg" xmlns:xlink="http://www.w3.org/1999/xlink">
<g id="graph1" class="graph" transform="scale(1 1) rotate(0) translate(4 84)">
<title>libsandbox.h</title>
<!-- Node1 -->
<g id="node1" class="node"><title>Node1</title>
<polygon fill="#bfbfbf" stroke="black" points="39.9238,-59 39.9238,-79 112.076,-79 112.076,-59 39.9238,-59"/>
<text text-anchor="middle" x="76" y="-65" font-family="Helvetica,sans-Serif" font-size="10.00">libsandbox.h</text>
</g>
<!-- Node2 -->
<g id="node3" class="node"><title>Node2</title>
<polygon fill="none" stroke="#bfbfbf" points="-0.00976562,-1 -0.00976562,-21 66.0098,-21 66.0098,-1 -0.00976562,-1"/>
<text text-anchor="middle" x="33" y="-7" font-family="Helvetica,sans-Serif" font-size="10.00">sys/cdefs.h</text>
</g>
<!-- Node1&#45;&gt;Node2 -->
<g id="edge2" class="edge"><title>Node1&#45;&gt;Node2</title>
<path fill="none" stroke="midnightblue" d="M68.8994,-58.7527C62.763,-50.7611 53.7303,-38.9975 46.2608,-29.2698"/>
<polygon fill="midnightblue" stroke="midnightblue" points="48.8348,-26.8751 39.9685,-21.0752 43.2827,-31.1383 48.8348,-26.8751"/>
</g>
<!-- Node3 -->
<g id="node5" class="node"><title>Node3</title>
<polygon fill="none" stroke="#bfbfbf" points="84.313,-1 84.313,-21 153.687,-21 153.687,-1 84.313,-1"/>
<text text-anchor="middle" x="119" y="-7" font-family="Helvetica,sans-Serif" font-size="10.00">libchannel.h</text>
</g>
<!-- Node1&#45;&gt;Node3 -->
<g id="edge4" class="edge"><title>Node1&#45;&gt;Node3</title>
<path fill="none" stroke="midnightblue" d="M83.1006,-58.7527C89.237,-50.7611 98.2697,-38.9975 105.739,-29.2698"/>
<polygon fill="midnightblue" stroke="midnightblue" points="108.717,-31.1383 112.032,-21.0752 103.165,-26.8751 108.717,-31.1383"/>
</g>
</g>
</svg>
