<?xml version="1.0" encoding="UTF-8" standalone="no"?>
<!DOCTYPE svg PUBLIC "-//W3C//DTD SVG 1.1//EN"
 "http://www.w3.org/Graphics/SVG/1.1/DTD/svg11.dtd">
<!-- Generated by graphviz version 2.28.0 (20120824.1043)
 -->
<!-- Title: libsandbox&#45;capsicum.c Pages: 1 -->
<svg width="1161pt" height="204pt"
 viewBox="0.00 0.00 1161.00 204.00" xmlns="http://www.w3.org/2000/svg" xmlns:xlink="http://www.w3.org/1999/xlink">
<g id="graph1" class="graph" transform="scale(1 1) rotate(0) translate(4 200)">
<title>libsandbox&#45;capsicum.c</title>
<!-- Node1 -->
<g id="node1" class="node"><title>Node1</title>
<polygon fill="#bfbfbf" stroke="black" points="618.421,-175 618.421,-195 735.579,-195 735.579,-175 618.421,-175"/>
<text text-anchor="middle" x="677" y="-181" font-family="Helvetica,sans-Serif" font-size="10.00">libsandbox&#45;capsicum.c</text>
</g>
<!-- Node2 -->
<g id="node3" class="node"><title>Node2</title>
<a xlink:href="libsandbox_8h.xhtml" target="_top" xlink:title="Public API.">
<polygon fill="none" stroke="black" points="39.9238,-59 39.9238,-79 112.076,-79 112.076,-59 39.9238,-59"/>
<text text-anchor="middle" x="76" y="-65" font-family="Helvetica,sans-Serif" font-size="10.00">libsandbox.h</text>
</a>
</g>
<!-- Node1&#45;&gt;Node2 -->
<g id="edge2" class="edge"><title>Node1&#45;&gt;Node2</title>
<path fill="none" stroke="midnightblue" d="M618.374,-183.119C478.674,-180.495 134.791,-170.748 95,-138 80.8341,-126.342 76.738,-105.072 75.7791,-89.414"/>
<polygon fill="midnightblue" stroke="midnightblue" points="79.2735,-89.1363 75.5362,-79.2225 72.2755,-89.3031 79.2735,-89.1363"/>
</g>
<!-- Node5 -->
<g id="node9" class="node"><title>Node5</title>
<a xlink:href="libsandbox-internal_8h.xhtml" target="_top" xlink:title="Private API.">
<polygon fill="none" stroke="black" points="103.86,-117 103.86,-137 212.14,-137 212.14,-117 103.86,-117"/>
<text text-anchor="middle" x="158" y="-123" font-family="Helvetica,sans-Serif" font-size="10.00">libsandbox&#45;internal.h</text>
</a>
</g>
<!-- Node1&#45;&gt;Node5 -->
<g id="edge8" class="edge"><title>Node1&#45;&gt;Node5</title>
<path fill="none" stroke="midnightblue" d="M618.211,-179.146C533.191,-171.888 370.737,-157.129 222.465,-138.131"/>
<polygon fill="midnightblue" stroke="midnightblue" points="222.634,-134.624 212.268,-136.815 221.737,-141.566 222.634,-134.624"/>
</g>
<!-- Node7 -->
<g id="node14" class="node"><title>Node7</title>
<polygon fill="none" stroke="#bfbfbf" points="230.049,-117 230.049,-137 299.951,-137 299.951,-117 230.049,-117"/>
<text text-anchor="middle" x="265" y="-123" font-family="Helvetica,sans-Serif" font-size="10.00">sys/mman.h</text>
</g>
<!-- Node1&#45;&gt;Node7 -->
<g id="edge14" class="edge"><title>Node1&#45;&gt;Node7</title>
<path fill="none" stroke="midnightblue" d="M618.415,-178.487C547.642,-171.423 424.803,-157.875 310.016,-138.035"/>
<polygon fill="midnightblue" stroke="midnightblue" points="310.454,-134.558 300.001,-136.284 309.249,-141.454 310.454,-134.558"/>
</g>
<!-- Node8 -->
<g id="node16" class="node"><title>Node8</title>
<polygon fill="none" stroke="#bfbfbf" points="317.653,-117 317.653,-137 400.347,-137 400.347,-117 317.653,-117"/>
<text text-anchor="middle" x="359" y="-123" font-family="Helvetica,sans-Serif" font-size="10.00">sys/procdesc.h</text>
</g>
<!-- Node1&#45;&gt;Node8 -->
<g id="edge16" class="edge"><title>Node1&#45;&gt;Node8</title>
<path fill="none" stroke="midnightblue" d="M621.744,-174.97C569.727,-166.367 489.375,-152.814 410.557,-138.255"/>
<polygon fill="midnightblue" stroke="midnightblue" points="410.925,-134.764 400.454,-136.382 409.649,-141.646 410.925,-134.764"/>
</g>
<!-- Node9 -->
<g id="node18" class="node"><title>Node9</title>
<polygon fill="none" stroke="#bfbfbf" points="418.49,-117 418.49,-137 489.51,-137 489.51,-117 418.49,-117"/>
<text text-anchor="middle" x="454" y="-123" font-family="Helvetica,sans-Serif" font-size="10.00">sys/socket.h</text>
</g>
<!-- Node1&#45;&gt;Node9 -->
<g id="edge18" class="edge"><title>Node1&#45;&gt;Node9</title>
<path fill="none" stroke="midnightblue" d="M640.675,-174.878C602.137,-165.2 541.173,-149.891 499.471,-139.419"/>
<polygon fill="midnightblue" stroke="midnightblue" points="500.123,-135.974 489.572,-136.933 498.418,-142.763 500.123,-135.974"/>
</g>
<!-- Node10 -->
<g id="node20" class="node"><title>Node10</title>
<polygon fill="none" stroke="#bfbfbf" points="507.882,-117 507.882,-137 566.118,-137 566.118,-117 507.882,-117"/>
<text text-anchor="middle" x="537" y="-123" font-family="Helvetica,sans-Serif" font-size="10.00">sys/stat.h</text>
</g>
<!-- Node1&#45;&gt;Node10 -->
<g id="edge20" class="edge"><title>Node1&#45;&gt;Node10</title>
<path fill="none" stroke="midnightblue" d="M654.195,-174.878C631.11,-165.644 595.208,-151.283 569.222,-140.889"/>
<polygon fill="midnightblue" stroke="midnightblue" points="570.38,-137.582 559.795,-137.118 567.78,-144.082 570.38,-137.582"/>
</g>
<!-- Node11 -->
<g id="node22" class="node"><title>Node11</title>
<polygon fill="none" stroke="#bfbfbf" points="584.214,-117 584.214,-137 635.786,-137 635.786,-117 584.214,-117"/>
<text text-anchor="middle" x="610" y="-123" font-family="Helvetica,sans-Serif" font-size="10.00">assert.h</text>
</g>
<!-- Node1&#45;&gt;Node11 -->
<g id="edge22" class="edge"><title>Node1&#45;&gt;Node11</title>
<path fill="none" stroke="midnightblue" d="M665.936,-174.753C655.79,-166.272 640.56,-153.543 628.553,-143.507"/>
<polygon fill="midnightblue" stroke="midnightblue" points="630.775,-140.803 620.858,-137.075 626.286,-146.174 630.775,-140.803"/>
</g>
<!-- Node12 -->
<g id="node24" class="node"><title>Node12</title>
<polygon fill="none" stroke="#bfbfbf" points="654.269,-117 654.269,-137 699.731,-137 699.731,-117 654.269,-117"/>
<text text-anchor="middle" x="677" y="-123" font-family="Helvetica,sans-Serif" font-size="10.00">dlfcn.h</text>
</g>
<!-- Node1&#45;&gt;Node12 -->
<g id="edge24" class="edge"><title>Node1&#45;&gt;Node12</title>
<path fill="none" stroke="midnightblue" d="M677,-174.753C677,-167.25 677,-156.424 677,-147.078"/>
<polygon fill="midnightblue" stroke="midnightblue" points="680.5,-147.075 677,-137.075 673.5,-147.075 680.5,-147.075"/>
</g>
<!-- Node13 -->
<g id="node26" class="node"><title>Node13</title>
<polygon fill="none" stroke="#bfbfbf" points="717.993,-117 717.993,-137 754.007,-137 754.007,-117 717.993,-117"/>
<text text-anchor="middle" x="736" y="-123" font-family="Helvetica,sans-Serif" font-size="10.00">err.h</text>
</g>
<!-- Node1&#45;&gt;Node13 -->
<g id="edge26" class="edge"><title>Node1&#45;&gt;Node13</title>
<path fill="none" stroke="midnightblue" d="M686.743,-174.753C695.506,-166.435 708.575,-154.031 719.049,-144.089"/>
<polygon fill="midnightblue" stroke="midnightblue" points="721.595,-146.498 726.439,-137.075 716.776,-141.421 721.595,-146.498"/>
</g>
<!-- Node14 -->
<g id="node28" class="node"><title>Node14</title>
<polygon fill="none" stroke="#bfbfbf" points="772.158,-117 772.158,-137 819.842,-137 819.842,-117 772.158,-117"/>
<text text-anchor="middle" x="796" y="-123" font-family="Helvetica,sans-Serif" font-size="10.00">errno.h</text>
</g>
<!-- Node1&#45;&gt;Node14 -->
<g id="edge28" class="edge"><title>Node1&#45;&gt;Node14</title>
<path fill="none" stroke="midnightblue" d="M696.384,-174.878C715.661,-165.807 745.451,-151.788 767.436,-141.442"/>
<polygon fill="midnightblue" stroke="midnightblue" points="769.066,-144.543 776.624,-137.118 766.086,-138.209 769.066,-144.543"/>
</g>
<!-- Node15 -->
<g id="node30" class="node"><title>Node15</title>
<polygon fill="none" stroke="#bfbfbf" points="837.66,-117 837.66,-137 880.34,-137 880.34,-117 837.66,-117"/>
<text text-anchor="middle" x="859" y="-123" font-family="Helvetica,sans-Serif" font-size="10.00">fcntl.h</text>
</g>
<!-- Node1&#45;&gt;Node15 -->
<g id="edge30" class="edge"><title>Node1&#45;&gt;Node15</title>
<path fill="none" stroke="midnightblue" d="M707.127,-174.98C735.73,-166.382 780.166,-152.935 827.774,-138.037"/>
<polygon fill="midnightblue" stroke="midnightblue" points="828.84,-141.371 837.334,-135.039 826.745,-134.691 828.84,-141.371"/>
</g>
<!-- Node16 -->
<g id="node32" class="node"><title>Node16</title>
<polygon fill="none" stroke="#bfbfbf" points="898.707,-117 898.707,-137 955.293,-137 955.293,-117 898.707,-117"/>
<text text-anchor="middle" x="927" y="-123" font-family="Helvetica,sans-Serif" font-size="10.00">stdbool.h</text>
</g>
<!-- Node1&#45;&gt;Node16 -->
<g id="edge32" class="edge"><title>Node1&#45;&gt;Node16</title>
<path fill="none" stroke="midnightblue" d="M721.386,-174.957C762.27,-166.497 824.839,-153.216 888.577,-138.024"/>
<polygon fill="midnightblue" stroke="midnightblue" points="889.491,-141.404 898.4,-135.669 887.859,-134.597 889.491,-141.404"/>
</g>
<!-- Node17 -->
<g id="node34" class="node"><title>Node17</title>
<polygon fill="none" stroke="#bfbfbf" points="973.269,-117 973.269,-137 1018.73,-137 1018.73,-117 973.269,-117"/>
<text text-anchor="middle" x="996" y="-123" font-family="Helvetica,sans-Serif" font-size="10.00">stdio.h</text>
</g>
<!-- Node1&#45;&gt;Node17 -->
<g id="edge34" class="edge"><title>Node1&#45;&gt;Node17</title>
<path fill="none" stroke="midnightblue" d="M735.748,-177.101C791.876,-169.944 878.951,-157.367 963.062,-137.949"/>
<polygon fill="midnightblue" stroke="midnightblue" points="964.1,-141.301 973.037,-135.61 962.502,-134.485 964.1,-141.301"/>
</g>
<!-- Node18 -->
<g id="node36" class="node"><title>Node18</title>
<polygon fill="none" stroke="#bfbfbf" points="1037.16,-117 1037.16,-137 1084.84,-137 1084.84,-117 1037.16,-117"/>
<text text-anchor="middle" x="1061" y="-123" font-family="Helvetica,sans-Serif" font-size="10.00">stdlib.h</text>
</g>
<!-- Node1&#45;&gt;Node18 -->
<g id="edge36" class="edge"><title>Node1&#45;&gt;Node18</title>
<path fill="none" stroke="midnightblue" d="M735.683,-179.096C805.592,-172.61 925.666,-159.425 1027,-138 1027.1,-137.979 1027.2,-137.957 1027.31,-137.935"/>
<polygon fill="midnightblue" stroke="midnightblue" points="1028.09,-141.346 1036.97,-135.569 1026.43,-134.547 1028.09,-141.346"/>
</g>
<!-- Node19 -->
<g id="node38" class="node"><title>Node19</title>
<polygon fill="none" stroke="#bfbfbf" points="1102.49,-117 1102.49,-137 1153.51,-137 1153.51,-117 1102.49,-117"/>
<text text-anchor="middle" x="1128" y="-123" font-family="Helvetica,sans-Serif" font-size="10.00">unistd.h</text>
</g>
<!-- Node1&#45;&gt;Node19 -->
<g id="edge38" class="edge"><title>Node1&#45;&gt;Node19</title>
<path fill="none" stroke="midnightblue" d="M735.688,-180.631C814.697,-175.405 959.686,-163.392 1092.2,-137.86"/>
<polygon fill="midnightblue" stroke="midnightblue" points="1092.98,-141.273 1102.12,-135.918 1091.64,-134.404 1092.98,-141.273"/>
</g>
<!-- Node3 -->
<g id="node5" class="node"><title>Node3</title>
<polygon fill="none" stroke="#bfbfbf" points="-0.00976562,-1 -0.00976562,-21 66.0098,-21 66.0098,-1 -0.00976562,-1"/>
<text text-anchor="middle" x="33" y="-7" font-family="Helvetica,sans-Serif" font-size="10.00">sys/cdefs.h</text>
</g>
<!-- Node2&#45;&gt;Node3 -->
<g id="edge4" class="edge"><title>Node2&#45;&gt;Node3</title>
<path fill="none" stroke="midnightblue" d="M68.8994,-58.7527C62.763,-50.7611 53.7303,-38.9975 46.2608,-29.2698"/>
<polygon fill="midnightblue" stroke="midnightblue" points="48.8348,-26.8751 39.9685,-21.0752 43.2827,-31.1383 48.8348,-26.8751"/>
</g>
<!-- Node4 -->
<g id="node7" class="node"><title>Node4</title>
<polygon fill="none" stroke="#bfbfbf" points="84.313,-1 84.313,-21 153.687,-21 153.687,-1 84.313,-1"/>
<text text-anchor="middle" x="119" y="-7" font-family="Helvetica,sans-Serif" font-size="10.00">libchannel.h</text>
</g>
<!-- Node2&#45;&gt;Node4 -->
<g id="edge6" class="edge"><title>Node2&#45;&gt;Node4</title>
<path fill="none" stroke="midnightblue" d="M83.1006,-58.7527C89.237,-50.7611 98.2697,-38.9975 105.739,-29.2698"/>
<polygon fill="midnightblue" stroke="midnightblue" points="108.717,-31.1383 112.032,-21.0752 103.165,-26.8751 108.717,-31.1383"/>
</g>
<!-- Node5&#45;&gt;Node2 -->
<g id="edge10" class="edge"><title>Node5&#45;&gt;Node2</title>
<path fill="none" stroke="midnightblue" d="M144.459,-116.753C131.802,-108.109 112.683,-95.0518 97.8638,-84.9314"/>
<polygon fill="midnightblue" stroke="midnightblue" points="99.5206,-81.8245 89.2887,-79.0752 95.5728,-87.6052 99.5206,-81.8245"/>
</g>
<!-- Node6 -->
<g id="node12" class="node"><title>Node6</title>
<polygon fill="none" stroke="#bfbfbf" points="129.769,-59 129.769,-79 200.231,-79 200.231,-59 129.769,-59"/>
<text text-anchor="middle" x="165" y="-65" font-family="Helvetica,sans-Serif" font-size="10.00">sys/param.h</text>
</g>
<!-- Node5&#45;&gt;Node6 -->
<g id="edge12" class="edge"><title>Node5&#45;&gt;Node6</title>
<path fill="none" stroke="midnightblue" d="M159.156,-116.753C160.094,-109.25 161.447,-98.4238 162.615,-89.0781"/>
<polygon fill="midnightblue" stroke="midnightblue" points="166.098,-89.4321 163.866,-79.0752 159.152,-88.5638 166.098,-89.4321"/>
</g>
</g>
</svg>
