<?xml version="1.0" encoding="UTF-8" standalone="no"?>
<!DOCTYPE svg PUBLIC "-//W3C//DTD SVG 1.1//EN"
 "http://www.w3.org/Graphics/SVG/1.1/DTD/svg11.dtd">
<!-- Generated by graphviz version 2.28.0 (20120824.1043)
 -->
<!-- Title: channel_isvalid Pages: 1 -->
<svg width="218pt" height="67pt"
 viewBox="0.00 0.00 218.00 67.00" xmlns="http://www.w3.org/2000/svg" xmlns:xlink="http://www.w3.org/1999/xlink">
<g id="graph1" class="graph" transform="scale(1 1) rotate(0) translate(4 63)">
<title>channel_isvalid</title>
<!-- Node1 -->
<g id="node1" class="node"><title>Node1</title>
<polygon fill="#bfbfbf" stroke="black" points="-0.189453,-19 -0.189453,-39 84.1895,-39 84.1895,-19 -0.189453,-19"/>
<text text-anchor="middle" x="42" y="-25" font-family="Helvetica,sans-Serif" font-size="10.00">channel_isvalid</text>
</g>
<!-- Node2 -->
<g id="node3" class="node"><title>Node2</title>
<a xlink:href="group__libchannel.xhtml#gae6b1ccc4b055de0acdbc6823365e521d" target="_top" xlink:title="Free a channel.">
<polygon fill="none" stroke="black" points="120.308,-39 120.308,-59 209.692,-59 209.692,-39 120.308,-39"/>
<text text-anchor="middle" x="165" y="-45" font-family="Helvetica,sans-Serif" font-size="10.00">channel_destroy</text>
</a>
</g>
<!-- Node1&#45;&gt;Node2 -->
<g id="edge2" class="edge"><title>Node1&#45;&gt;Node2</title>
<path fill="none" stroke="midnightblue" d="M94.2099,-37.4644C102.785,-38.8819 111.616,-40.3415 119.99,-41.7256"/>
<polygon fill="midnightblue" stroke="midnightblue" points="94.7398,-34.0046 84.3029,-35.8269 93.5982,-40.9109 94.7398,-34.0046"/>
</g>
<!-- Node3 -->
<g id="node5" class="node"><title>Node3</title>
<a xlink:href="group__libchannel.xhtml#ga6326a0c477f6297a16fcada2ce485001" target="_top" xlink:title="Get a channel&#39;s flags.">
<polygon fill="none" stroke="black" points="126.143,-0 126.143,-20 203.857,-20 203.857,-0 126.143,-0"/>
<text text-anchor="middle" x="165" y="-6" font-family="Helvetica,sans-Serif" font-size="10.00">channel_flags</text>
</a>
</g>
<!-- Node1&#45;&gt;Node3 -->
<g id="edge4" class="edge"><title>Node1&#45;&gt;Node3</title>
<path fill="none" stroke="midnightblue" d="M94.3597,-20.9352C105.019,-19.2614 116.067,-17.5267 126.136,-15.9456"/>
<polygon fill="midnightblue" stroke="midnightblue" points="93.6389,-17.5055 84.3029,-22.5144 94.7248,-24.4207 93.6389,-17.5055"/>
</g>
</g>
</svg>
