<?xml version="1.0" encoding="UTF-8" standalone="no"?>
<!DOCTYPE svg PUBLIC "-//W3C//DTD SVG 1.1//EN"
 "http://www.w3.org/Graphics/SVG/1.1/DTD/svg11.dtd">
<!-- Generated by graphviz version 2.28.0 (20120824.1043)
 -->
<!-- Title: channel_copy Pages: 1 -->
<svg width="316pt" height="47pt"
 viewBox="0.00 0.00 316.00 47.00" xmlns="http://www.w3.org/2000/svg" xmlns:xlink="http://www.w3.org/1999/xlink">
<g id="graph1" class="graph" transform="scale(1 1) rotate(0) translate(4 43)">
<title>channel_copy</title>
<!-- Node1 -->
<g id="node1" class="node"><title>Node1</title>
<polygon fill="#bfbfbf" stroke="black" points="0.143066,-19 0.143066,-39 77.8569,-39 77.8569,-19 0.143066,-19"/>
<text text-anchor="middle" x="39" y="-25" font-family="Helvetica,sans-Serif" font-size="10.00">channel_copy</text>
</g>
<!-- Node2 -->
<g id="node3" class="node"><title>Node2</title>
<a xlink:href="group__libchannel.xhtml#ga39e73c5006a72b808c59705257af51dd" target="_top" xlink:title="Tests the validity of a pointer that claims to be a channel.">
<polygon fill="none" stroke="black" points="223.811,-19 223.811,-39 308.189,-39 308.189,-19 223.811,-19"/>
<text text-anchor="middle" x="266" y="-25" font-family="Helvetica,sans-Serif" font-size="10.00">channel_isvalid</text>
</a>
</g>
<!-- Node1&#45;&gt;Node2 -->
<g id="edge2" class="edge"><title>Node1&#45;&gt;Node2</title>
<path fill="none" stroke="midnightblue" d="M77.9138,-29C115.091,-29 172.046,-29 213.349,-29"/>
<polygon fill="midnightblue" stroke="midnightblue" points="213.491,-32.5001 223.491,-29 213.491,-25.5001 213.491,-32.5001"/>
</g>
<!-- Node3 -->
<g id="node5" class="node"><title>Node3</title>
<a xlink:href="group__libchannel.xhtml#ga02f51b872a4fda6696d63edca2f1acab" target="_top" xlink:title="How many bytes does a particular channel take to store?">
<polygon fill="none" stroke="black" points="113.813,-0 113.813,-20 188.187,-20 188.187,-0 113.813,-0"/>
<text text-anchor="middle" x="151" y="-6" font-family="Helvetica,sans-Serif" font-size="10.00">channel_size</text>
</a>
</g>
<!-- Node1&#45;&gt;Node3 -->
<g id="edge4" class="edge"><title>Node1&#45;&gt;Node3</title>
<path fill="none" stroke="midnightblue" d="M78.164,-22.408C86.4595,-20.9752 95.3206,-19.4446 103.886,-17.9651"/>
<polygon fill="midnightblue" stroke="midnightblue" points="104.496,-21.4117 113.754,-16.2606 103.305,-14.5138 104.496,-21.4117"/>
</g>
<!-- Node3&#45;&gt;Node2 -->
<g id="edge6" class="edge"><title>Node3&#45;&gt;Node2</title>
<path fill="none" stroke="midnightblue" d="M188.376,-16.1163C196.445,-17.473 205.143,-18.9356 213.683,-20.3715"/>
<polygon fill="midnightblue" stroke="midnightblue" points="213.145,-23.8301 223.587,-22.0368 214.306,-16.927 213.145,-23.8301"/>
</g>
</g>
</svg>
