<?xml version="1.0" encoding="UTF-8" standalone="no"?>
<!DOCTYPE svg PUBLIC "-//W3C//DTD SVG 1.1//EN"
 "http://www.w3.org/Graphics/SVG/1.1/DTD/svg11.dtd">
<!-- Generated by graphviz version 2.28.0 (20120824.1043)
 -->
<!-- Title: message_append_channels Pages: 1 -->
<svg width="496pt" height="106pt"
 viewBox="0.00 0.00 496.00 106.00" xmlns="http://www.w3.org/2000/svg" xmlns:xlink="http://www.w3.org/1999/xlink">
<g id="graph1" class="graph" transform="scale(1 1) rotate(0) translate(4 102)">
<title>message_append_channels</title>
<!-- Node1 -->
<g id="node1" class="node"><title>Node1</title>
<polygon fill="#bfbfbf" stroke="black" points="0.451172,-39 0.451172,-59 141.549,-59 141.549,-39 0.451172,-39"/>
<text text-anchor="middle" x="71" y="-45" font-family="Helvetica,sans-Serif" font-size="10.00">message_append_channels</text>
</g>
<!-- Node2 -->
<g id="node3" class="node"><title>Node2</title>
<a xlink:href="group__libchannel.xhtml#ga5562e42d1df2a6aadd5da3ca47475727" target="_top" xlink:title="channel_copy">
<polygon fill="none" stroke="black" points="179.143,-78 179.143,-98 256.857,-98 256.857,-78 179.143,-78"/>
<text text-anchor="middle" x="218" y="-84" font-family="Helvetica,sans-Serif" font-size="10.00">channel_copy</text>
</a>
</g>
<!-- Node1&#45;&gt;Node2 -->
<g id="edge2" class="edge"><title>Node1&#45;&gt;Node2</title>
<path fill="none" stroke="midnightblue" d="M109.341,-59.0435C127.861,-64.0247 150.42,-70.0923 170.094,-75.3839"/>
<polygon fill="midnightblue" stroke="midnightblue" points="169.22,-78.773 179.785,-77.9906 171.038,-72.0133 169.22,-78.773"/>
</g>
<!-- Node4 -->
<g id="node7" class="node"><title>Node4</title>
<a xlink:href="group__libchannel.xhtml#ga02f51b872a4fda6696d63edca2f1acab" target="_top" xlink:title="How many bytes does a particular channel take to store?">
<polygon fill="none" stroke="black" points="293.813,-39 293.813,-59 368.187,-59 368.187,-39 293.813,-39"/>
<text text-anchor="middle" x="331" y="-45" font-family="Helvetica,sans-Serif" font-size="10.00">channel_size</text>
</a>
</g>
<!-- Node1&#45;&gt;Node4 -->
<g id="edge10" class="edge"><title>Node1&#45;&gt;Node4</title>
<path fill="none" stroke="midnightblue" d="M141.819,-49C186.752,-49 243.916,-49 283.386,-49"/>
<polygon fill="midnightblue" stroke="midnightblue" points="283.522,-52.5001 293.522,-49 283.522,-45.5001 283.522,-52.5001"/>
</g>
<!-- Node5 -->
<g id="node11" class="node"><title>Node5</title>
<a xlink:href="group__libchannel-message.xhtml#ga163914140b38e0a90eb87ab46011c2f3" target="_top" xlink:title="Free a message, including any data it has copied.">
<polygon fill="none" stroke="black" points="178.315,-0 178.315,-20 257.685,-20 257.685,-0 178.315,-0"/>
<text text-anchor="middle" x="218" y="-6" font-family="Helvetica,sans-Serif" font-size="10.00">message_free</text>
</a>
</g>
<!-- Node1&#45;&gt;Node5 -->
<g id="edge12" class="edge"><title>Node1&#45;&gt;Node5</title>
<path fill="none" stroke="midnightblue" d="M109.341,-38.9565C127.861,-33.9753 150.42,-27.9077 170.094,-22.6161"/>
<polygon fill="midnightblue" stroke="midnightblue" points="171.038,-25.9867 179.785,-20.0094 169.22,-19.227 171.038,-25.9867"/>
</g>
<!-- Node3 -->
<g id="node5" class="node"><title>Node3</title>
<a xlink:href="group__libchannel.xhtml#ga39e73c5006a72b808c59705257af51dd" target="_top" xlink:title="Tests the validity of a pointer that claims to be a channel.">
<polygon fill="none" stroke="black" points="403.811,-58 403.811,-78 488.189,-78 488.189,-58 403.811,-58"/>
<text text-anchor="middle" x="446" y="-64" font-family="Helvetica,sans-Serif" font-size="10.00">channel_isvalid</text>
</a>
</g>
<!-- Node2&#45;&gt;Node3 -->
<g id="edge4" class="edge"><title>Node2&#45;&gt;Node3</title>
<path fill="none" stroke="midnightblue" d="M257.082,-84.6299C294.54,-81.315 351.988,-76.2311 393.505,-72.557"/>
<polygon fill="midnightblue" stroke="midnightblue" points="394.043,-76.0232 403.695,-71.6553 393.426,-69.0505 394.043,-76.0232"/>
</g>
<!-- Node2&#45;&gt;Node4 -->
<g id="edge6" class="edge"><title>Node2&#45;&gt;Node4</title>
<path fill="none" stroke="midnightblue" d="M247.585,-77.9565C261.051,-73.2255 277.305,-67.5145 291.807,-62.4191"/>
<polygon fill="midnightblue" stroke="midnightblue" points="293.237,-65.6265 301.512,-59.0094 290.917,-59.0222 293.237,-65.6265"/>
</g>
<!-- Node4&#45;&gt;Node3 -->
<g id="edge8" class="edge"><title>Node4&#45;&gt;Node3</title>
<path fill="none" stroke="midnightblue" d="M368.376,-55.1163C376.445,-56.473 385.143,-57.9356 393.683,-59.3715"/>
<polygon fill="midnightblue" stroke="midnightblue" points="393.145,-62.8301 403.587,-61.0368 394.306,-55.927 393.145,-62.8301"/>
</g>
</g>
</svg>
