<?xml version="1.0" encoding="UTF-8" standalone="no"?>
<!DOCTYPE svg PUBLIC "-//W3C//DTD SVG 1.1//EN"
 "http://www.w3.org/Graphics/SVG/1.1/DTD/svg11.dtd">
<!-- Generated by graphviz version 2.28.0 (20120824.1043)
 -->
<!-- Title: message_append_channels Pages: 1 -->
<svg width="386pt" height="86pt"
 viewBox="0.00 0.00 386.00 86.00" xmlns="http://www.w3.org/2000/svg" xmlns:xlink="http://www.w3.org/1999/xlink">
<g id="graph1" class="graph" transform="scale(1 1) rotate(0) translate(4 82)">
<title>message_append_channels</title>
<!-- Node1 -->
<g id="node1" class="node"><title>Node1</title>
<polygon fill="#bfbfbf" stroke="black" points="0.451172,-39 0.451172,-59 141.549,-59 141.549,-39 0.451172,-39"/>
<text text-anchor="middle" x="71" y="-45" font-family="Helvetica,sans-Serif" font-size="10.00">message_append_channels</text>
</g>
<!-- Node2 -->
<g id="node3" class="node"><title>Node2</title>
<a xlink:href="group__libchannel.xhtml#ga39e73c5006a72b808c59705257af51dd" target="_top" xlink:title="Tests the validity of a pointer that claims to be a channel.">
<polygon fill="none" stroke="black" points="293.811,-58 293.811,-78 378.189,-78 378.189,-58 293.811,-58"/>
<text text-anchor="middle" x="336" y="-64" font-family="Helvetica,sans-Serif" font-size="10.00">channel_isvalid</text>
</a>
</g>
<!-- Node1&#45;&gt;Node2 -->
<g id="edge2" class="edge"><title>Node1&#45;&gt;Node2</title>
<path fill="none" stroke="midnightblue" d="M117.675,-59.0164C136.287,-62.6183 158.074,-66.2283 178,-68 213.125,-71.1231 252.846,-71.0896 283.546,-70.2923"/>
<polygon fill="midnightblue" stroke="midnightblue" points="283.699,-73.7894 293.592,-69.9961 283.493,-66.7924 283.699,-73.7894"/>
</g>
<!-- Node3 -->
<g id="node5" class="node"><title>Node3</title>
<a xlink:href="group__libchannel.xhtml#ga02f51b872a4fda6696d63edca2f1acab" target="_top" xlink:title="How many bytes does a particular channel take to store?">
<polygon fill="none" stroke="black" points="180.813,-39 180.813,-59 255.187,-59 255.187,-39 180.813,-39"/>
<text text-anchor="middle" x="218" y="-45" font-family="Helvetica,sans-Serif" font-size="10.00">channel_size</text>
</a>
</g>
<!-- Node1&#45;&gt;Node3 -->
<g id="edge4" class="edge"><title>Node1&#45;&gt;Node3</title>
<path fill="none" stroke="midnightblue" d="M141.952,-49C151.529,-49 161.166,-49 170.193,-49"/>
<polygon fill="midnightblue" stroke="midnightblue" points="170.469,-52.5001 180.469,-49 170.469,-45.5001 170.469,-52.5001"/>
</g>
<!-- Node4 -->
<g id="node8" class="node"><title>Node4</title>
<a xlink:href="group__libchannel-message.xhtml#ga163914140b38e0a90eb87ab46011c2f3" target="_top" xlink:title="Free a message, including any data it has copied.">
<polygon fill="none" stroke="black" points="178.315,-0 178.315,-20 257.685,-20 257.685,-0 178.315,-0"/>
<text text-anchor="middle" x="218" y="-6" font-family="Helvetica,sans-Serif" font-size="10.00">message_free</text>
</a>
</g>
<!-- Node1&#45;&gt;Node4 -->
<g id="edge8" class="edge"><title>Node1&#45;&gt;Node4</title>
<path fill="none" stroke="midnightblue" d="M109.341,-38.9565C127.861,-33.9753 150.42,-27.9077 170.094,-22.6161"/>
<polygon fill="midnightblue" stroke="midnightblue" points="171.038,-25.9867 179.785,-20.0094 169.22,-19.227 171.038,-25.9867"/>
</g>
<!-- Node3&#45;&gt;Node2 -->
<g id="edge6" class="edge"><title>Node3&#45;&gt;Node2</title>
<path fill="none" stroke="midnightblue" d="M255.385,-54.9596C264.265,-56.4142 273.935,-57.998 283.376,-59.5444"/>
<polygon fill="midnightblue" stroke="midnightblue" points="283.049,-63.0374 293.484,-61.1999 284.181,-56.1294 283.049,-63.0374"/>
</g>
</g>
</svg>
