<?xml version="1.0" encoding="UTF-8" standalone="no"?>
<!DOCTYPE svg PUBLIC "-//W3C//DTD SVG 1.1//EN"
 "http://www.w3.org/Graphics/SVG/1.1/DTD/svg11.dtd">
<!-- Generated by graphviz version 2.28.0 (20120824.1043)
 -->
<!-- Title: channel_isvalid Pages: 1 -->
<svg width="228pt" height="106pt"
 viewBox="0.00 0.00 228.00 106.00" xmlns="http://www.w3.org/2000/svg" xmlns:xlink="http://www.w3.org/1999/xlink">
<g id="graph1" class="graph" transform="scale(1 1) rotate(0) translate(4 102)">
<title>channel_isvalid</title>
<!-- Node1 -->
<g id="node1" class="node"><title>Node1</title>
<polygon fill="#bfbfbf" stroke="black" points="-0.189453,-39 -0.189453,-59 84.1895,-59 84.1895,-39 -0.189453,-39"/>
<text text-anchor="middle" x="42" y="-45" font-family="Helvetica,sans-Serif" font-size="10.00">channel_isvalid</text>
</g>
<!-- Node2 -->
<g id="node3" class="node"><title>Node2</title>
<a xlink:href="group__libchannel.xhtml#ga8b54fbb0498e7e2ce7df817bfea256b7" target="_top" xlink:title="A file descriptor representation of a channel.">
<polygon fill="none" stroke="black" points="119.751,-78 119.751,-98 220.249,-98 220.249,-78 119.751,-78"/>
<text text-anchor="middle" x="170" y="-84" font-family="Helvetica,sans-Serif" font-size="10.00">channel_descriptor</text>
</a>
</g>
<!-- Node1&#45;&gt;Node2 -->
<g id="edge2" class="edge"><title>Node1&#45;&gt;Node2</title>
<path fill="none" stroke="midnightblue" d="M85.0521,-62.0161C101.877,-67.2239 120.952,-73.1279 136.662,-77.9906"/>
<polygon fill="midnightblue" stroke="midnightblue" points="86.0359,-58.6569 75.4481,-59.0435 83.9661,-65.3439 86.0359,-58.6569"/>
</g>
<!-- Node3 -->
<g id="node5" class="node"><title>Node3</title>
<a xlink:href="group__libchannel.xhtml#gae6b1ccc4b055de0acdbc6823365e521d" target="_top" xlink:title="Free a channel.">
<polygon fill="none" stroke="black" points="125.308,-39 125.308,-59 214.692,-59 214.692,-39 125.308,-39"/>
<text text-anchor="middle" x="170" y="-45" font-family="Helvetica,sans-Serif" font-size="10.00">channel_destroy</text>
</a>
</g>
<!-- Node1&#45;&gt;Node3 -->
<g id="edge4" class="edge"><title>Node1&#45;&gt;Node3</title>
<path fill="none" stroke="midnightblue" d="M94.2788,-49C104.484,-49 115.114,-49 125.047,-49"/>
<polygon fill="midnightblue" stroke="midnightblue" points="94.2571,-45.5001 84.2571,-49 94.2571,-52.5001 94.2571,-45.5001"/>
</g>
<!-- Node4 -->
<g id="node7" class="node"><title>Node4</title>
<a xlink:href="group__libchannel.xhtml#ga6326a0c477f6297a16fcada2ce485001" target="_top" xlink:title="Get a channel&#39;s flags.">
<polygon fill="none" stroke="black" points="131.143,-0 131.143,-20 208.857,-20 208.857,-0 131.143,-0"/>
<text text-anchor="middle" x="170" y="-6" font-family="Helvetica,sans-Serif" font-size="10.00">channel_flags</text>
</a>
</g>
<!-- Node1&#45;&gt;Node4 -->
<g id="edge6" class="edge"><title>Node1&#45;&gt;Node4</title>
<path fill="none" stroke="midnightblue" d="M85.0521,-35.9839C101.877,-30.7761 120.952,-24.8721 136.662,-20.0094"/>
<polygon fill="midnightblue" stroke="midnightblue" points="83.9661,-32.6561 75.4481,-38.9565 86.0359,-39.3431 83.9661,-32.6561"/>
</g>
</g>
</svg>
