<?xml version="1.0" encoding="UTF-8" standalone="no"?>
<!DOCTYPE svg PUBLIC "-//W3C//DTD SVG 1.1//EN"
 "http://www.w3.org/Graphics/SVG/1.1/DTD/svg11.dtd">
<!-- Generated by graphviz version 2.28.0 (20120824.1043)
 -->
<!-- Title: libchannel.h Pages: 1 -->
<svg width="183pt" height="146pt"
 viewBox="0.00 0.00 183.44 146.00" xmlns="http://www.w3.org/2000/svg" xmlns:xlink="http://www.w3.org/1999/xlink">
<g id="graph1" class="graph" transform="scale(1 1) rotate(0) translate(4 142)">
<title>libchannel.h</title>
<!-- Node1 -->
<g id="node1" class="node"><title>Node1</title>
<polygon fill="#bfbfbf" stroke="black" points="76.313,-117 76.313,-137 145.687,-137 145.687,-117 76.313,-117"/>
<text text-anchor="middle" x="111" y="-123" font-family="Helvetica,sans-Serif" font-size="10.00">libchannel.h</text>
</g>
<!-- Node2 -->
<g id="node3" class="node"><title>Node2</title>
<a xlink:href="libchannel-internal_8h.xhtml" target="_top" xlink:title="Internal definitions for libchannel.">
<polygon fill="none" stroke="black" points="58.249,-59 58.249,-79 163.751,-79 163.751,-59 58.249,-59"/>
<text text-anchor="middle" x="111" y="-65" font-family="Helvetica,sans-Serif" font-size="10.00">libchannel&#45;internal.h</text>
</a>
</g>
<!-- Node1&#45;&gt;Node2 -->
<g id="edge2" class="edge"><title>Node1&#45;&gt;Node2</title>
<path fill="none" stroke="midnightblue" d="M111,-106.707C111,-97.3384 111,-86.5262 111,-79.0752"/>
<polygon fill="midnightblue" stroke="midnightblue" points="107.5,-106.753 111,-116.753 114.5,-106.753 107.5,-106.753"/>
</g>
<!-- Node3 -->
<g id="node5" class="node"><title>Node3</title>
<a xlink:href="libchannel_8c.xhtml" target="_top" xlink:title="Implementation of platform&#45;portable parts.">
<polygon fill="none" stroke="black" points="-0.40625,-1 -0.40625,-21 68.4062,-21 68.4062,-1 -0.40625,-1"/>
<text text-anchor="middle" x="34" y="-7" font-family="Helvetica,sans-Serif" font-size="10.00">libchannel.c</text>
</a>
</g>
<!-- Node1&#45;&gt;Node3 -->
<g id="edge8" class="edge"><title>Node1&#45;&gt;Node3</title>
<path fill="none" stroke="midnightblue" d="M83.7073,-111.78C71.3219,-103.99 57.5607,-93.216 49,-80 37.038,-61.5331 34.503,-34.9544 34.0369,-21.1317"/>
<polygon fill="midnightblue" stroke="midnightblue" points="82,-114.836 92.3886,-116.917 85.5648,-108.812 82,-114.836"/>
</g>
<!-- Node4 -->
<g id="node7" class="node"><title>Node4</title>
<a xlink:href="uds_8c.xhtml" target="_top" xlink:title="UNIX domain socket implementation.">
<polygon fill="none" stroke="black" points="131.049,-1 131.049,-21 170.951,-21 170.951,-1 131.049,-1"/>
<text text-anchor="middle" x="151" y="-7" font-family="Helvetica,sans-Serif" font-size="10.00">uds.c</text>
</a>
</g>
<!-- Node1&#45;&gt;Node4 -->
<g id="edge10" class="edge"><title>Node1&#45;&gt;Node4</title>
<path fill="none" stroke="midnightblue" d="M139.916,-111.947C152.18,-104.334 165.192,-93.6604 172,-80 181.92,-60.0947 167.508,-34.5631 158.076,-21.158"/>
<polygon fill="midnightblue" stroke="midnightblue" points="138.143,-108.929 131.218,-116.947 141.632,-114.997 138.143,-108.929"/>
</g>
<!-- Node2&#45;&gt;Node3 -->
<g id="edge4" class="edge"><title>Node2&#45;&gt;Node3</title>
<path fill="none" stroke="midnightblue" d="M90.1908,-52.8661C76.2219,-42.7069 58.2826,-29.6601 46.4784,-21.0752"/>
<polygon fill="midnightblue" stroke="midnightblue" points="88.139,-55.7016 98.285,-58.7527 92.2563,-50.0404 88.139,-55.7016"/>
</g>
<!-- Node2&#45;&gt;Node4 -->
<g id="edge6" class="edge"><title>Node2&#45;&gt;Node4</title>
<path fill="none" stroke="midnightblue" d="M123.486,-50.5197C130.455,-40.763 138.848,-29.0122 144.518,-21.0752"/>
<polygon fill="midnightblue" stroke="midnightblue" points="120.57,-48.581 117.605,-58.7527 126.266,-52.6497 120.57,-48.581"/>
</g>
</g>
</svg>
