<?xml version="1.0" encoding="UTF-8" standalone="no"?>
<!DOCTYPE svg PUBLIC "-//W3C//DTD SVG 1.1//EN"
 "http://www.w3.org/Graphics/SVG/1.1/DTD/svg11.dtd">
<!-- Generated by graphviz version 2.28.0 (20120824.1043)
 -->
<!-- Title: libchannel&#45;internal.h Pages: 1 -->
<svg width="216pt" height="88pt"
 viewBox="0.00 0.00 216.00 88.00" xmlns="http://www.w3.org/2000/svg" xmlns:xlink="http://www.w3.org/1999/xlink">
<g id="graph1" class="graph" transform="scale(1 1) rotate(0) translate(4 84)">
<title>libchannel&#45;internal.h</title>
<!-- Node1 -->
<g id="node1" class="node"><title>Node1</title>
<polygon fill="#bfbfbf" stroke="black" points="66.249,-59 66.249,-79 171.751,-79 171.751,-59 66.249,-59"/>
<text text-anchor="middle" x="119" y="-65" font-family="Helvetica,sans-Serif" font-size="10.00">libchannel&#45;internal.h</text>
</g>
<!-- Node2 -->
<g id="node3" class="node"><title>Node2</title>
<a xlink:href="libchannel_8c.xhtml" target="_top" xlink:title="Implementation of platform&#45;portable parts.">
<polygon fill="none" stroke="black" points="-0.40625,-1 -0.40625,-21 68.4062,-21 68.4062,-1 -0.40625,-1"/>
<text text-anchor="middle" x="34" y="-7" font-family="Helvetica,sans-Serif" font-size="10.00">libchannel.c</text>
</a>
</g>
<!-- Node1&#45;&gt;Node2 -->
<g id="edge2" class="edge"><title>Node1&#45;&gt;Node2</title>
<path fill="none" stroke="midnightblue" d="M96.4641,-53.1528C80.9829,-42.9534 60.9284,-29.7411 47.7748,-21.0752"/>
<polygon fill="midnightblue" stroke="midnightblue" points="94.6878,-56.1738 104.964,-58.7527 98.5389,-50.3284 94.6878,-56.1738"/>
</g>
<!-- Node3 -->
<g id="node5" class="node"><title>Node3</title>
<a xlink:href="message_8c.xhtml" target="_top" xlink:title="Implementation of the message abstraction.">
<polygon fill="none" stroke="black" points="86.8228,-1 86.8228,-21 151.177,-21 151.177,-1 86.8228,-1"/>
<text text-anchor="middle" x="119" y="-7" font-family="Helvetica,sans-Serif" font-size="10.00">message.c</text>
</a>
</g>
<!-- Node1&#45;&gt;Node3 -->
<g id="edge4" class="edge"><title>Node1&#45;&gt;Node3</title>
<path fill="none" stroke="midnightblue" d="M119,-48.7065C119,-39.3384 119,-28.5262 119,-21.0752"/>
<polygon fill="midnightblue" stroke="midnightblue" points="115.5,-48.7527 119,-58.7527 122.5,-48.7528 115.5,-48.7527"/>
</g>
<!-- Node4 -->
<g id="node7" class="node"><title>Node4</title>
<a xlink:href="uds_8c.xhtml" target="_top" xlink:title="UNIX domain socket implementation.">
<polygon fill="none" stroke="black" points="169.049,-1 169.049,-21 208.951,-21 208.951,-1 169.049,-1"/>
<text text-anchor="middle" x="189" y="-7" font-family="Helvetica,sans-Serif" font-size="10.00">uds.c</text>
</a>
</g>
<!-- Node1&#45;&gt;Node4 -->
<g id="edge6" class="edge"><title>Node1&#45;&gt;Node4</title>
<path fill="none" stroke="midnightblue" d="M138.64,-52.288C151.23,-42.2161 167.127,-29.4981 177.656,-21.0752"/>
<polygon fill="midnightblue" stroke="midnightblue" points="136.181,-49.7727 130.559,-58.7527 140.554,-55.2388 136.181,-49.7727"/>
</g>
</g>
</svg>
