<?xml version="1.0" encoding="UTF-8" standalone="no"?>
<!DOCTYPE svg PUBLIC "-//W3C//DTD SVG 1.1//EN"
 "http://www.w3.org/Graphics/SVG/1.1/DTD/svg11.dtd">
<!-- Generated by graphviz version 2.28.0 (20120824.1043)
 -->
<!-- Title: libchannel&#45;array.h Pages: 1 -->
<svg width="143pt" height="88pt"
 viewBox="0.00 0.00 143.00 88.00" xmlns="http://www.w3.org/2000/svg" xmlns:xlink="http://www.w3.org/1999/xlink">
<g id="graph1" class="graph" transform="scale(1 1) rotate(0) translate(4 84)">
<title>libchannel&#45;array.h</title>
<!-- Node1 -->
<g id="node1" class="node"><title>Node1</title>
<polygon fill="#bfbfbf" stroke="black" points="23.625,-59 23.625,-79 118.375,-79 118.375,-59 23.625,-59"/>
<text text-anchor="middle" x="71" y="-65" font-family="Helvetica,sans-Serif" font-size="10.00">libchannel&#45;array.h</text>
</g>
<!-- Node2 -->
<g id="node3" class="node"><title>Node2</title>
<polygon fill="none" stroke="#bfbfbf" points="-0.00976562,-1 -0.00976562,-21 66.0098,-21 66.0098,-1 -0.00976562,-1"/>
<text text-anchor="middle" x="33" y="-7" font-family="Helvetica,sans-Serif" font-size="10.00">sys/cdefs.h</text>
</g>
<!-- Node1&#45;&gt;Node2 -->
<g id="edge2" class="edge"><title>Node1&#45;&gt;Node2</title>
<path fill="none" stroke="midnightblue" d="M64.7251,-58.7527C59.3575,-50.8427 51.4824,-39.2372 44.9213,-29.5683"/>
<polygon fill="midnightblue" stroke="midnightblue" points="47.6694,-27.3847 39.1582,-21.0752 41.8771,-31.3152 47.6694,-27.3847"/>
</g>
<!-- Node3 -->
<g id="node5" class="node"><title>Node3</title>
<polygon fill="none" stroke="#bfbfbf" points="84.2095,-1 84.2095,-21 135.791,-21 135.791,-1 84.2095,-1"/>
<text text-anchor="middle" x="110" y="-7" font-family="Helvetica,sans-Serif" font-size="10.00">stddef.h</text>
</g>
<!-- Node1&#45;&gt;Node3 -->
<g id="edge4" class="edge"><title>Node1&#45;&gt;Node3</title>
<path fill="none" stroke="midnightblue" d="M77.4401,-58.7527C82.9489,-50.8427 91.0312,-39.2372 97.765,-29.5683"/>
<polygon fill="midnightblue" stroke="midnightblue" points="100.837,-31.2815 103.68,-21.0752 95.0927,-27.281 100.837,-31.2815"/>
</g>
</g>
</svg>
