<?xml version="1.0" encoding="UTF-8" standalone="no"?>
<!DOCTYPE svg PUBLIC "-//W3C//DTD SVG 1.1//EN"
 "http://www.w3.org/Graphics/SVG/1.1/DTD/svg11.dtd">
<!-- Generated by graphviz version 2.28.0 (20120824.1043)
 -->
<!-- Title: libchannel.h Pages: 1 -->
<svg width="249pt" height="146pt"
 viewBox="0.00 0.00 249.00 146.00" xmlns="http://www.w3.org/2000/svg" xmlns:xlink="http://www.w3.org/1999/xlink">
<g id="graph1" class="graph" transform="scale(1 1) rotate(0) translate(4 142)">
<title>libchannel.h</title>
<!-- Node1 -->
<g id="node1" class="node"><title>Node1</title>
<polygon fill="#bfbfbf" stroke="black" points="114.313,-117 114.313,-137 183.687,-137 183.687,-117 114.313,-117"/>
<text text-anchor="middle" x="149" y="-123" font-family="Helvetica,sans-Serif" font-size="10.00">libchannel.h</text>
</g>
<!-- Node2 -->
<g id="node3" class="node"><title>Node2</title>
<a xlink:href="libchannel-internal_8h.xhtml" target="_top" xlink:title="libchannel&#45;internal.h">
<polygon fill="none" stroke="black" points="56.249,-59 56.249,-79 161.751,-79 161.751,-59 56.249,-59"/>
<text text-anchor="middle" x="109" y="-65" font-family="Helvetica,sans-Serif" font-size="10.00">libchannel&#45;internal.h</text>
</a>
</g>
<!-- Node1&#45;&gt;Node2 -->
<g id="edge2" class="edge"><title>Node1&#45;&gt;Node2</title>
<path fill="none" stroke="midnightblue" d="M136.514,-108.52C129.545,-98.763 121.152,-87.0122 115.482,-79.0752"/>
<polygon fill="midnightblue" stroke="midnightblue" points="133.734,-110.65 142.395,-116.753 139.43,-106.581 133.734,-110.65"/>
</g>
<!-- Node3 -->
<g id="node5" class="node"><title>Node3</title>
<a xlink:href="libchannel_8c.xhtml" target="_top" xlink:title="Implementation of platform&#45;portable parts.">
<polygon fill="none" stroke="black" points="-0.40625,-1 -0.40625,-21 68.4062,-21 68.4062,-1 -0.40625,-1"/>
<text text-anchor="middle" x="34" y="-7" font-family="Helvetica,sans-Serif" font-size="10.00">libchannel.c</text>
</a>
</g>
<!-- Node1&#45;&gt;Node3 -->
<g id="edge10" class="edge"><title>Node1&#45;&gt;Node3</title>
<path fill="none" stroke="midnightblue" d="M104.276,-115.952C83.8768,-109.124 61.1668,-97.9549 47,-80 33.4499,-62.8268 32.5957,-35.7023 33.2341,-21.456"/>
<polygon fill="midnightblue" stroke="midnightblue" points="103.469,-119.366 114.056,-118.965 105.53,-112.676 103.469,-119.366"/>
</g>
<!-- Node4 -->
<g id="node7" class="node"><title>Node4</title>
<a xlink:href="message_8c.xhtml" target="_top" xlink:title="Implementation of the message abstraction.">
<polygon fill="none" stroke="black" points="97.8228,-1 97.8228,-21 162.177,-21 162.177,-1 97.8228,-1"/>
<text text-anchor="middle" x="130" y="-7" font-family="Helvetica,sans-Serif" font-size="10.00">message.c</text>
</a>
</g>
<!-- Node1&#45;&gt;Node4 -->
<g id="edge12" class="edge"><title>Node1&#45;&gt;Node4</title>
<path fill="none" stroke="midnightblue" d="M161.02,-108.091C168.744,-94.2662 176.259,-74.7373 170,-58 164.365,-42.9328 151.32,-29.5411 141.651,-21.147"/>
<polygon fill="midnightblue" stroke="midnightblue" points="158.022,-106.285 155.806,-116.646 163.999,-109.928 158.022,-106.285"/>
</g>
<!-- Node5 -->
<g id="node9" class="node"><title>Node5</title>
<a xlink:href="uds_8c.xhtml" target="_top" xlink:title="UNIX domain socket implementation.">
<polygon fill="none" stroke="black" points="202.049,-1 202.049,-21 241.951,-21 241.951,-1 202.049,-1"/>
<text text-anchor="middle" x="222" y="-7" font-family="Helvetica,sans-Serif" font-size="10.00">uds.c</text>
</a>
</g>
<!-- Node1&#45;&gt;Node5 -->
<g id="edge14" class="edge"><title>Node1&#45;&gt;Node5</title>
<path fill="none" stroke="midnightblue" d="M163.777,-109.224C170.899,-100.754 179.322,-90.1445 186,-80 199.22,-59.9162 211.647,-34.4571 217.861,-21.1108"/>
<polygon fill="midnightblue" stroke="midnightblue" points="161.059,-107.017 157.201,-116.884 166.37,-111.576 161.059,-107.017"/>
</g>
<!-- Node2&#45;&gt;Node3 -->
<g id="edge4" class="edge"><title>Node2&#45;&gt;Node3</title>
<path fill="none" stroke="midnightblue" d="M88.3452,-52.5778C74.7961,-42.4611 57.5434,-29.5791 46.1543,-21.0752"/>
<polygon fill="midnightblue" stroke="midnightblue" points="86.5084,-55.5743 96.6153,-58.7527 90.6965,-49.9653 86.5084,-55.5743"/>
</g>
<!-- Node2&#45;&gt;Node4 -->
<g id="edge6" class="edge"><title>Node2&#45;&gt;Node4</title>
<path fill="none" stroke="midnightblue" d="M116.007,-49.3154C119.571,-39.8101 123.742,-28.6882 126.597,-21.0752"/>
<polygon fill="midnightblue" stroke="midnightblue" points="112.702,-48.1605 112.468,-58.7527 119.256,-50.6184 112.702,-48.1605"/>
</g>
<!-- Node2&#45;&gt;Node5 -->
<g id="edge8" class="edge"><title>Node2&#45;&gt;Node5</title>
<path fill="none" stroke="midnightblue" d="M136.414,-54.4143C157.265,-44.0813 185.382,-30.1472 203.601,-21.1181"/>
<polygon fill="midnightblue" stroke="midnightblue" points="134.813,-51.3015 127.407,-58.878 137.921,-57.5736 134.813,-51.3015"/>
</g>
</g>
</svg>
