<?xml version="1.0" encoding="UTF-8" standalone="no"?>
<!DOCTYPE svg PUBLIC "-//W3C//DTD SVG 1.1//EN"
 "http://www.w3.org/Graphics/SVG/1.1/DTD/svg11.dtd">
<!-- Generated by graphviz version 2.28.0 (20120824.1043)
 -->
<!-- Title: libchannel&#45;internal.h Pages: 1 -->
<svg width="350pt" height="262pt"
 viewBox="0.00 0.00 350.00 262.00" xmlns="http://www.w3.org/2000/svg" xmlns:xlink="http://www.w3.org/1999/xlink">
<g id="graph1" class="graph" transform="scale(1 1) rotate(0) translate(4 258)">
<title>libchannel&#45;internal.h</title>
<!-- Node1 -->
<g id="node1" class="node"><title>Node1</title>
<polygon fill="#bfbfbf" stroke="black" points="237.249,-233 237.249,-253 342.751,-253 342.751,-233 237.249,-233"/>
<text text-anchor="middle" x="290" y="-239" font-family="Helvetica,sans-Serif" font-size="10.00">libchannel&#45;internal.h</text>
</g>
<!-- Node2 -->
<g id="node3" class="node"><title>Node2</title>
<a xlink:href="libchannel_8h.xhtml" target="_top" xlink:title="Public API for libchannel.">
<polygon fill="none" stroke="black" points="213.313,-175 213.313,-195 282.687,-195 282.687,-175 213.313,-175"/>
<text text-anchor="middle" x="248" y="-181" font-family="Helvetica,sans-Serif" font-size="10.00">libchannel.h</text>
</a>
</g>
<!-- Node1&#45;&gt;Node2 -->
<g id="edge2" class="edge"><title>Node1&#45;&gt;Node2</title>
<path fill="none" stroke="midnightblue" d="M283.065,-232.753C277.071,-224.761 268.248,-212.998 260.952,-203.27"/>
<polygon fill="midnightblue" stroke="midnightblue" points="263.606,-200.975 254.806,-195.075 258.006,-205.175 263.606,-200.975"/>
</g>
<!-- Node4 -->
<g id="node7" class="node"><title>Node4</title>
<polygon fill="none" stroke="#bfbfbf" points="210.707,-59 210.707,-79 267.293,-79 267.293,-59 210.707,-59"/>
<text text-anchor="middle" x="239" y="-65" font-family="Helvetica,sans-Serif" font-size="10.00">stdbool.h</text>
</g>
<!-- Node1&#45;&gt;Node4 -->
<g id="edge24" class="edge"><title>Node1&#45;&gt;Node4</title>
<path fill="none" stroke="midnightblue" d="M291.567,-232.605C293.459,-219.339 295.829,-194.454 291,-174 283.347,-141.583 263.958,-107.75 251.14,-87.7926"/>
<polygon fill="midnightblue" stroke="midnightblue" points="253.884,-85.5966 245.455,-79.1772 248.041,-89.4517 253.884,-85.5966"/>
</g>
<!-- Node3 -->
<g id="node5" class="node"><title>Node3</title>
<polygon fill="none" stroke="#bfbfbf" points="-0.00976562,-1 -0.00976562,-21 66.0098,-21 66.0098,-1 -0.00976562,-1"/>
<text text-anchor="middle" x="33" y="-7" font-family="Helvetica,sans-Serif" font-size="10.00">sys/cdefs.h</text>
</g>
<!-- Node2&#45;&gt;Node3 -->
<g id="edge4" class="edge"><title>Node2&#45;&gt;Node3</title>
<path fill="none" stroke="midnightblue" d="M213.169,-178.162C181.309,-171.748 133.694,-159.398 97,-138 64.6837,-119.154 51.5048,-114.046 36,-80 29.0438,-64.7255 28.8829,-45.4686 30.1183,-31.3499"/>
<polygon fill="midnightblue" stroke="midnightblue" points="33.6078,-31.6444 31.3053,-21.3028 26.6561,-30.823 33.6078,-31.6444"/>
</g>
<!-- Node2&#45;&gt;Node4 -->
<g id="edge6" class="edge"><title>Node2&#45;&gt;Node4</title>
<path fill="none" stroke="midnightblue" d="M247.263,-174.671C245.793,-156.041 242.466,-113.898 240.511,-89.1428"/>
<polygon fill="midnightblue" stroke="midnightblue" points="243.998,-88.8329 239.722,-79.1394 237.02,-89.3839 243.998,-88.8329"/>
</g>
<!-- Node5 -->
<g id="node9" class="node"><title>Node5</title>
<polygon fill="none" stroke="#bfbfbf" points="157.209,-1 157.209,-21 208.791,-21 208.791,-1 157.209,-1"/>
<text text-anchor="middle" x="183" y="-7" font-family="Helvetica,sans-Serif" font-size="10.00">stddef.h</text>
</g>
<!-- Node2&#45;&gt;Node5 -->
<g id="edge8" class="edge"><title>Node2&#45;&gt;Node5</title>
<path fill="none" stroke="midnightblue" d="M254.4,-174.679C268.641,-152.673 299.88,-96.4537 276,-58 263.505,-37.8799 239.312,-26.293 218.734,-19.7814"/>
<polygon fill="midnightblue" stroke="midnightblue" points="219.567,-16.3792 208.989,-16.9773 217.631,-23.1062 219.567,-16.3792"/>
</g>
<!-- Node6 -->
<g id="node11" class="node"><title>Node6</title>
<a xlink:href="libchannel-message_8h.xhtml" target="_top" xlink:title="Declaration of message.">
<polygon fill="none" stroke="black" points="106.36,-117 106.36,-137 219.64,-137 219.64,-117 106.36,-117"/>
<text text-anchor="middle" x="163" y="-123" font-family="Helvetica,sans-Serif" font-size="10.00">libchannel&#45;message.h</text>
</a>
</g>
<!-- Node2&#45;&gt;Node6 -->
<g id="edge10" class="edge"><title>Node2&#45;&gt;Node6</title>
<path fill="none" stroke="midnightblue" d="M233.964,-174.753C220.72,-166.027 200.651,-152.805 185.23,-142.646"/>
<polygon fill="midnightblue" stroke="midnightblue" points="187.051,-139.654 176.775,-137.075 183.2,-145.5 187.051,-139.654"/>
</g>
<!-- Node6&#45;&gt;Node3 -->
<g id="edge12" class="edge"><title>Node6&#45;&gt;Node3</title>
<path fill="none" stroke="midnightblue" d="M117.197,-116.957C94.6677,-110.292 68.8109,-98.9674 52,-80 40.0789,-66.5496 35.5806,-46.1996 33.913,-31.2658"/>
<polygon fill="midnightblue" stroke="midnightblue" points="37.3872,-30.8002 33.1134,-21.1056 30.4088,-31.3494 37.3872,-30.8002"/>
</g>
<!-- Node6&#45;&gt;Node4 -->
<g id="edge14" class="edge"><title>Node6&#45;&gt;Node4</title>
<path fill="none" stroke="midnightblue" d="M175.55,-116.753C187.17,-108.19 204.667,-95.2978 218.346,-85.2186"/>
<polygon fill="midnightblue" stroke="midnightblue" points="220.709,-87.8249 226.684,-79.0752 216.557,-82.1895 220.709,-87.8249"/>
</g>
<!-- Node6&#45;&gt;Node5 -->
<g id="edge16" class="edge"><title>Node6&#45;&gt;Node5</title>
<path fill="none" stroke="midnightblue" d="M164.637,-116.671C167.905,-98.0407 175.299,-55.8976 179.642,-31.1428"/>
<polygon fill="midnightblue" stroke="midnightblue" points="183.116,-31.5938 181.397,-21.1394 176.221,-30.3841 183.116,-31.5938"/>
</g>
<!-- Node7 -->
<g id="node16" class="node"><title>Node7</title>
<a xlink:href="libchannel-array_8h.xhtml" target="_top" xlink:title="Something like bounded type&#45;safe arrays in C.">
<polygon fill="none" stroke="black" points="60.625,-59 60.625,-79 155.375,-79 155.375,-59 60.625,-59"/>
<text text-anchor="middle" x="108" y="-65" font-family="Helvetica,sans-Serif" font-size="10.00">libchannel&#45;array.h</text>
</a>
</g>
<!-- Node6&#45;&gt;Node7 -->
<g id="edge18" class="edge"><title>Node6&#45;&gt;Node7</title>
<path fill="none" stroke="midnightblue" d="M153.918,-116.753C145.829,-108.516 133.805,-96.2738 124.09,-86.3824"/>
<polygon fill="midnightblue" stroke="midnightblue" points="126.417,-83.7572 116.913,-79.0752 121.423,-88.6622 126.417,-83.7572"/>
</g>
<!-- Node7&#45;&gt;Node3 -->
<g id="edge20" class="edge"><title>Node7&#45;&gt;Node3</title>
<path fill="none" stroke="midnightblue" d="M95.6153,-58.7527C84.1477,-50.1903 66.881,-37.2978 53.3821,-27.2186"/>
<polygon fill="midnightblue" stroke="midnightblue" points="55.2611,-24.2536 45.1543,-21.0752 51.0731,-29.8626 55.2611,-24.2536"/>
</g>
<!-- Node7&#45;&gt;Node5 -->
<g id="edge22" class="edge"><title>Node7&#45;&gt;Node5</title>
<path fill="none" stroke="midnightblue" d="M120.385,-58.7527C131.852,-50.1903 149.119,-37.2978 162.618,-27.2186"/>
<polygon fill="midnightblue" stroke="midnightblue" points="164.927,-29.8626 170.846,-21.0752 160.739,-24.2536 164.927,-29.8626"/>
</g>
</g>
</svg>
