<?xml version="1.0" encoding="UTF-8" standalone="no"?>
<!DOCTYPE svg PUBLIC "-//W3C//DTD SVG 1.1//EN"
 "http://www.w3.org/Graphics/SVG/1.1/DTD/svg11.dtd">
<!-- Generated by graphviz version 2.28.0 (20120824.1043)
 -->
<!-- Title: libchannel&#45;internal.h Pages: 1 -->
<svg width="148pt" height="146pt"
 viewBox="0.00 0.00 148.00 146.00" xmlns="http://www.w3.org/2000/svg" xmlns:xlink="http://www.w3.org/1999/xlink">
<g id="graph1" class="graph" transform="scale(1 1) rotate(0) translate(4 142)">
<title>libchannel&#45;internal.h</title>
<!-- Node1 -->
<g id="node1" class="node"><title>Node1</title>
<polygon fill="#bfbfbf" stroke="black" points="27.249,-117 27.249,-137 132.751,-137 132.751,-117 27.249,-117"/>
<text text-anchor="middle" x="80" y="-123" font-family="Helvetica,sans-Serif" font-size="10.00">libchannel&#45;internal.h</text>
</g>
<!-- Node2 -->
<g id="node3" class="node"><title>Node2</title>
<a xlink:href="libchannel_8h.xhtml" target="_top" xlink:title="Public API for libchannel.">
<polygon fill="none" stroke="black" points="14.313,-59 14.313,-79 83.687,-79 83.687,-59 14.313,-59"/>
<text text-anchor="middle" x="49" y="-65" font-family="Helvetica,sans-Serif" font-size="10.00">libchannel.h</text>
</a>
</g>
<!-- Node1&#45;&gt;Node2 -->
<g id="edge2" class="edge"><title>Node1&#45;&gt;Node2</title>
<path fill="none" stroke="midnightblue" d="M74.881,-116.753C70.5473,-108.924 64.21,-97.4761 58.8912,-87.8679"/>
<polygon fill="midnightblue" stroke="midnightblue" points="61.9291,-86.129 54.0238,-79.0752 55.8048,-89.5193 61.9291,-86.129"/>
</g>
<!-- Node4 -->
<g id="node7" class="node"><title>Node4</title>
<polygon fill="none" stroke="#bfbfbf" points="83.707,-1 83.707,-21 140.293,-21 140.293,-1 83.707,-1"/>
<text text-anchor="middle" x="112" y="-7" font-family="Helvetica,sans-Serif" font-size="10.00">stdbool.h</text>
</g>
<!-- Node1&#45;&gt;Node4 -->
<g id="edge8" class="edge"><title>Node1&#45;&gt;Node4</title>
<path fill="none" stroke="midnightblue" d="M82.6187,-116.671C87.8718,-97.9568 99.7846,-55.5175 106.72,-30.8093"/>
<polygon fill="midnightblue" stroke="midnightblue" points="110.102,-31.7132 109.435,-21.1394 103.362,-29.8214 110.102,-31.7132"/>
</g>
<!-- Node3 -->
<g id="node5" class="node"><title>Node3</title>
<polygon fill="none" stroke="#bfbfbf" points="-0.00976562,-1 -0.00976562,-21 66.0098,-21 66.0098,-1 -0.00976562,-1"/>
<text text-anchor="middle" x="33" y="-7" font-family="Helvetica,sans-Serif" font-size="10.00">sys/cdefs.h</text>
</g>
<!-- Node2&#45;&gt;Node3 -->
<g id="edge4" class="edge"><title>Node2&#45;&gt;Node3</title>
<path fill="none" stroke="midnightblue" d="M46.3579,-58.7527C44.1911,-51.1689 41.0537,-40.1881 38.364,-30.7739"/>
<polygon fill="midnightblue" stroke="midnightblue" points="41.7055,-29.7289 35.5929,-21.0752 34.9749,-31.652 41.7055,-29.7289"/>
</g>
<!-- Node2&#45;&gt;Node4 -->
<g id="edge6" class="edge"><title>Node2&#45;&gt;Node4</title>
<path fill="none" stroke="midnightblue" d="M59.4032,-58.7527C68.8524,-50.3534 82.9892,-37.7874 94.2277,-27.7976"/>
<polygon fill="midnightblue" stroke="midnightblue" points="96.6416,-30.3348 101.79,-21.0752 91.991,-25.1029 96.6416,-30.3348"/>
</g>
</g>
</svg>
