<?xml version="1.0" encoding="UTF-8" standalone="no"?>
<!DOCTYPE svg PUBLIC "-//W3C//DTD SVG 1.1//EN"
 "http://www.w3.org/Graphics/SVG/1.1/DTD/svg11.dtd">
<!-- Generated by graphviz version 2.28.0 (20120824.1043)
 -->
<!-- Title: libchannel.h Pages: 1 -->
<svg width="291pt" height="204pt"
 viewBox="0.00 0.00 291.01 204.00" xmlns="http://www.w3.org/2000/svg" xmlns:xlink="http://www.w3.org/1999/xlink">
<g id="graph1" class="graph" transform="scale(1 1) rotate(0) translate(4 200)">
<title>libchannel.h</title>
<!-- Node1 -->
<g id="node1" class="node"><title>Node1</title>
<polygon fill="#bfbfbf" stroke="black" points="161.313,-175 161.313,-195 230.687,-195 230.687,-175 161.313,-175"/>
<text text-anchor="middle" x="196" y="-181" font-family="Helvetica,sans-Serif" font-size="10.00">libchannel.h</text>
</g>
<!-- Node2 -->
<g id="node3" class="node"><title>Node2</title>
<polygon fill="none" stroke="#bfbfbf" points="-0.00976562,-1 -0.00976562,-21 66.0098,-21 66.0098,-1 -0.00976562,-1"/>
<text text-anchor="middle" x="33" y="-7" font-family="Helvetica,sans-Serif" font-size="10.00">sys/cdefs.h</text>
</g>
<!-- Node1&#45;&gt;Node2 -->
<g id="edge2" class="edge"><title>Node1&#45;&gt;Node2</title>
<path fill="none" stroke="midnightblue" d="M164.775,-174.847C142.115,-167.256 111.45,-154.958 88,-138 60.1849,-117.886 50.0507,-111.748 37,-80 30.614,-64.4648 30.0827,-45.2364 30.8754,-31.1948"/>
<polygon fill="midnightblue" stroke="midnightblue" points="34.3644,-31.4719 31.7084,-21.2154 27.3886,-30.8896 34.3644,-31.4719"/>
</g>
<!-- Node3 -->
<g id="node5" class="node"><title>Node3</title>
<polygon fill="none" stroke="#bfbfbf" points="210.707,-59 210.707,-79 267.293,-79 267.293,-59 210.707,-59"/>
<text text-anchor="middle" x="239" y="-65" font-family="Helvetica,sans-Serif" font-size="10.00">stdbool.h</text>
</g>
<!-- Node1&#45;&gt;Node3 -->
<g id="edge4" class="edge"><title>Node1&#45;&gt;Node3</title>
<path fill="none" stroke="midnightblue" d="M201.26,-174.709C206.284,-165.573 213.835,-151.128 219,-138 225.328,-121.917 230.733,-103.013 234.322,-89.2242"/>
<polygon fill="midnightblue" stroke="midnightblue" points="237.744,-89.9669 236.795,-79.4147 230.957,-88.2559 237.744,-89.9669"/>
</g>
<!-- Node4 -->
<g id="node7" class="node"><title>Node4</title>
<polygon fill="none" stroke="#bfbfbf" points="157.209,-1 157.209,-21 208.791,-21 208.791,-1 157.209,-1"/>
<text text-anchor="middle" x="183" y="-7" font-family="Helvetica,sans-Serif" font-size="10.00">stddef.h</text>
</g>
<!-- Node1&#45;&gt;Node4 -->
<g id="edge6" class="edge"><title>Node1&#45;&gt;Node4</title>
<path fill="none" stroke="midnightblue" d="M209.734,-174.87C239.133,-154.165 303.34,-102.025 276,-58 263.505,-37.8799 239.312,-26.293 218.734,-19.7814"/>
<polygon fill="midnightblue" stroke="midnightblue" points="219.567,-16.3792 208.989,-16.9773 217.631,-23.1062 219.567,-16.3792"/>
</g>
<!-- Node5 -->
<g id="node9" class="node"><title>Node5</title>
<a xlink:href="libchannel-message_8h.xhtml" target="_top" xlink:title="Declaration of message.">
<polygon fill="none" stroke="black" points="97.3599,-117 97.3599,-137 210.64,-137 210.64,-117 97.3599,-117"/>
<text text-anchor="middle" x="154" y="-123" font-family="Helvetica,sans-Serif" font-size="10.00">libchannel&#45;message.h</text>
</a>
</g>
<!-- Node1&#45;&gt;Node5 -->
<g id="edge8" class="edge"><title>Node1&#45;&gt;Node5</title>
<path fill="none" stroke="midnightblue" d="M189.065,-174.753C183.071,-166.761 174.248,-154.998 166.952,-145.27"/>
<polygon fill="midnightblue" stroke="midnightblue" points="169.606,-142.975 160.806,-137.075 164.006,-147.175 169.606,-142.975"/>
</g>
<!-- Node5&#45;&gt;Node2 -->
<g id="edge10" class="edge"><title>Node5&#45;&gt;Node2</title>
<path fill="none" stroke="midnightblue" d="M114.65,-116.985C93.3062,-110.18 68.0774,-98.7127 52,-80 40.2874,-66.3676 35.7588,-46.0441 34.0271,-31.1662"/>
<polygon fill="midnightblue" stroke="midnightblue" points="37.5023,-30.7225 33.1755,-21.0514 30.527,-31.3099 37.5023,-30.7225"/>
</g>
<!-- Node5&#45;&gt;Node3 -->
<g id="edge12" class="edge"><title>Node5&#45;&gt;Node3</title>
<path fill="none" stroke="midnightblue" d="M168.036,-116.753C181.28,-108.027 201.349,-94.8051 216.77,-84.6458"/>
<polygon fill="midnightblue" stroke="midnightblue" points="218.8,-87.4995 225.225,-79.0752 214.949,-81.6541 218.8,-87.4995"/>
</g>
<!-- Node5&#45;&gt;Node4 -->
<g id="edge14" class="edge"><title>Node5&#45;&gt;Node4</title>
<path fill="none" stroke="midnightblue" d="M156.373,-116.671C161.112,-98.0407 171.833,-55.8976 178.13,-31.1428"/>
<polygon fill="midnightblue" stroke="midnightblue" points="181.602,-31.6936 180.675,-21.1394 174.818,-29.9678 181.602,-31.6936"/>
</g>
<!-- Node6 -->
<g id="node14" class="node"><title>Node6</title>
<a xlink:href="libchannel-array_8h.xhtml" target="_top" xlink:title="Something like bounded type&#45;safe arrays in C.">
<polygon fill="none" stroke="black" points="60.625,-59 60.625,-79 155.375,-79 155.375,-59 60.625,-59"/>
<text text-anchor="middle" x="108" y="-65" font-family="Helvetica,sans-Serif" font-size="10.00">libchannel&#45;array.h</text>
</a>
</g>
<!-- Node5&#45;&gt;Node6 -->
<g id="edge16" class="edge"><title>Node5&#45;&gt;Node6</title>
<path fill="none" stroke="midnightblue" d="M146.404,-116.753C139.773,-108.68 129.979,-96.7571 121.942,-86.9727"/>
<polygon fill="midnightblue" stroke="midnightblue" points="124.507,-84.5809 115.455,-79.0752 119.098,-89.0241 124.507,-84.5809"/>
</g>
<!-- Node6&#45;&gt;Node2 -->
<g id="edge18" class="edge"><title>Node6&#45;&gt;Node2</title>
<path fill="none" stroke="midnightblue" d="M95.6153,-58.7527C84.1477,-50.1903 66.881,-37.2978 53.3821,-27.2186"/>
<polygon fill="midnightblue" stroke="midnightblue" points="55.2611,-24.2536 45.1543,-21.0752 51.0731,-29.8626 55.2611,-24.2536"/>
</g>
<!-- Node6&#45;&gt;Node4 -->
<g id="edge20" class="edge"><title>Node6&#45;&gt;Node4</title>
<path fill="none" stroke="midnightblue" d="M120.385,-58.7527C131.852,-50.1903 149.119,-37.2978 162.618,-27.2186"/>
<polygon fill="midnightblue" stroke="midnightblue" points="164.927,-29.8626 170.846,-21.0752 160.739,-24.2536 164.927,-29.8626"/>
</g>
</g>
</svg>
