<?xml version="1.0" encoding="UTF-8" standalone="no"?>
<!DOCTYPE svg PUBLIC "-//W3C//DTD SVG 1.1//EN"
 "http://www.w3.org/Graphics/SVG/1.1/DTD/svg11.dtd">
<!-- Generated by graphviz version 2.28.0 (20120824.1043)
 -->
<!-- Title: libchannel&#45;message.h Pages: 1 -->
<svg width="217pt" height="146pt"
 viewBox="0.00 0.00 217.00 146.00" xmlns="http://www.w3.org/2000/svg" xmlns:xlink="http://www.w3.org/1999/xlink">
<g id="graph1" class="graph" transform="scale(1 1) rotate(0) translate(4 142)">
<title>libchannel&#45;message.h</title>
<!-- Node1 -->
<g id="node1" class="node"><title>Node1</title>
<polygon fill="#bfbfbf" stroke="black" points="43.3599,-117 43.3599,-137 156.64,-137 156.64,-117 43.3599,-117"/>
<text text-anchor="middle" x="100" y="-123" font-family="Helvetica,sans-Serif" font-size="10.00">libchannel&#45;message.h</text>
</g>
<!-- Node2 -->
<g id="node3" class="node"><title>Node2</title>
<polygon fill="none" stroke="#bfbfbf" points="-0.00976562,-1 -0.00976562,-21 66.0098,-21 66.0098,-1 -0.00976562,-1"/>
<text text-anchor="middle" x="33" y="-7" font-family="Helvetica,sans-Serif" font-size="10.00">sys/cdefs.h</text>
</g>
<!-- Node1&#45;&gt;Node2 -->
<g id="edge2" class="edge"><title>Node1&#45;&gt;Node2</title>
<path fill="none" stroke="midnightblue" d="M66.5646,-116.894C48.1774,-109.989 26.9334,-98.4528 16,-80 6.92802,-64.6888 13.7698,-44.6786 21.3035,-30.3355"/>
<polygon fill="midnightblue" stroke="midnightblue" points="24.4715,-31.8484 26.4425,-21.4385 18.41,-28.3471 24.4715,-31.8484"/>
</g>
<!-- Node3 -->
<g id="node5" class="node"><title>Node3</title>
<polygon fill="none" stroke="#bfbfbf" points="24.707,-59 24.707,-79 81.293,-79 81.293,-59 24.707,-59"/>
<text text-anchor="middle" x="53" y="-65" font-family="Helvetica,sans-Serif" font-size="10.00">stdbool.h</text>
</g>
<!-- Node1&#45;&gt;Node3 -->
<g id="edge4" class="edge"><title>Node1&#45;&gt;Node3</title>
<path fill="none" stroke="midnightblue" d="M92.2389,-116.753C85.4632,-108.68 75.4568,-96.7571 67.2449,-86.9727"/>
<polygon fill="midnightblue" stroke="midnightblue" points="69.7263,-84.4849 60.6167,-79.0752 64.3645,-88.985 69.7263,-84.4849"/>
</g>
<!-- Node4 -->
<g id="node7" class="node"><title>Node4</title>
<polygon fill="none" stroke="#bfbfbf" points="158.209,-1 158.209,-21 209.791,-21 209.791,-1 158.209,-1"/>
<text text-anchor="middle" x="184" y="-7" font-family="Helvetica,sans-Serif" font-size="10.00">stddef.h</text>
</g>
<!-- Node1&#45;&gt;Node4 -->
<g id="edge6" class="edge"><title>Node1&#45;&gt;Node4</title>
<path fill="none" stroke="midnightblue" d="M147.362,-116.961C168.138,-110.388 190.585,-99.1419 203,-80 212.958,-64.6463 204.839,-44.0733 196.341,-29.5906"/>
<polygon fill="midnightblue" stroke="midnightblue" points="199.226,-27.6055 190.888,-21.069 193.33,-31.3786 199.226,-27.6055"/>
</g>
<!-- Node5 -->
<g id="node9" class="node"><title>Node5</title>
<a xlink:href="libchannel-array_8h.xhtml" target="_top" xlink:title="Something like bounded type&#45;safe arrays in C.">
<polygon fill="none" stroke="black" points="99.625,-59 99.625,-79 194.375,-79 194.375,-59 99.625,-59"/>
<text text-anchor="middle" x="147" y="-65" font-family="Helvetica,sans-Serif" font-size="10.00">libchannel&#45;array.h</text>
</a>
</g>
<!-- Node1&#45;&gt;Node5 -->
<g id="edge8" class="edge"><title>Node1&#45;&gt;Node5</title>
<path fill="none" stroke="midnightblue" d="M107.761,-116.753C114.537,-108.68 124.543,-96.7571 132.755,-86.9727"/>
<polygon fill="midnightblue" stroke="midnightblue" points="135.635,-88.985 139.383,-79.0752 130.274,-84.4849 135.635,-88.985"/>
</g>
<!-- Node5&#45;&gt;Node2 -->
<g id="edge10" class="edge"><title>Node5&#45;&gt;Node2</title>
<path fill="none" stroke="midnightblue" d="M128.43,-58.878C110.047,-49.8475 81.6804,-35.9132 60.6474,-25.5812"/>
<polygon fill="midnightblue" stroke="midnightblue" points="62.0806,-22.3857 51.5618,-21.1181 58.9942,-28.6686 62.0806,-22.3857"/>
</g>
<!-- Node5&#45;&gt;Node4 -->
<g id="edge12" class="edge"><title>Node5&#45;&gt;Node4</title>
<path fill="none" stroke="midnightblue" d="M153.11,-58.7527C158.336,-50.8427 166.004,-39.2372 172.392,-29.5683"/>
<polygon fill="midnightblue" stroke="midnightblue" points="175.411,-31.348 178.004,-21.0752 169.571,-27.4891 175.411,-31.348"/>
</g>
</g>
</svg>
