<?xml version="1.0" encoding="UTF-8" standalone="no"?>
<!DOCTYPE svg PUBLIC "-//W3C//DTD SVG 1.1//EN"
 "http://www.w3.org/Graphics/SVG/1.1/DTD/svg11.dtd">
<!-- Generated by graphviz version 2.28.0 (20120824.1043)
 -->
<!-- Title: libchannel.c Pages: 1 -->
<svg width="308pt" height="204pt"
 viewBox="0.00 0.00 308.00 204.00" xmlns="http://www.w3.org/2000/svg" xmlns:xlink="http://www.w3.org/1999/xlink">
<g id="graph1" class="graph" transform="scale(1 1) rotate(0) translate(4 200)">
<title>libchannel.c</title>
<!-- Node1 -->
<g id="node1" class="node"><title>Node1</title>
<polygon fill="#bfbfbf" stroke="black" points="125.594,-175 125.594,-195 194.406,-195 194.406,-175 125.594,-175"/>
<text text-anchor="middle" x="160" y="-181" font-family="Helvetica,sans-Serif" font-size="10.00">libchannel.c</text>
</g>
<!-- Node2 -->
<g id="node3" class="node"><title>Node2</title>
<a xlink:href="libchannel_8h.xhtml" target="_top" xlink:title="Public API for libchannel.">
<polygon fill="none" stroke="black" points="6.31299,-59 6.31299,-79 75.687,-79 75.687,-59 6.31299,-59"/>
<text text-anchor="middle" x="41" y="-65" font-family="Helvetica,sans-Serif" font-size="10.00">libchannel.h</text>
</a>
</g>
<!-- Node1&#45;&gt;Node2 -->
<g id="edge2" class="edge"><title>Node1&#45;&gt;Node2</title>
<path fill="none" stroke="midnightblue" d="M125.399,-178.825C100.429,-173.187 68.051,-161.59 50,-138 39.5045,-124.284 38.0124,-104.284 38.6909,-89.5224"/>
<polygon fill="midnightblue" stroke="midnightblue" points="42.1881,-89.6994 39.5197,-79.4461 35.2117,-89.1255 42.1881,-89.6994"/>
</g>
<!-- Node5 -->
<g id="node9" class="node"><title>Node5</title>
<a xlink:href="libchannel-internal_8h.xhtml" target="_top" xlink:title="Internal definitions for libchannel.">
<polygon fill="none" stroke="black" points="59.249,-117 59.249,-137 164.751,-137 164.751,-117 59.249,-117"/>
<text text-anchor="middle" x="112" y="-123" font-family="Helvetica,sans-Serif" font-size="10.00">libchannel&#45;internal.h</text>
</a>
</g>
<!-- Node1&#45;&gt;Node5 -->
<g id="edge8" class="edge"><title>Node1&#45;&gt;Node5</title>
<path fill="none" stroke="midnightblue" d="M152.074,-174.753C145.084,-166.598 134.728,-154.516 126.294,-144.677"/>
<polygon fill="midnightblue" stroke="midnightblue" points="128.944,-142.39 119.779,-137.075 123.629,-146.946 128.944,-142.39"/>
</g>
<!-- Node6 -->
<g id="node13" class="node"><title>Node6</title>
<polygon fill="none" stroke="#bfbfbf" points="183.214,-117 183.214,-137 234.786,-137 234.786,-117 183.214,-117"/>
<text text-anchor="middle" x="209" y="-123" font-family="Helvetica,sans-Serif" font-size="10.00">assert.h</text>
</g>
<!-- Node1&#45;&gt;Node6 -->
<g id="edge14" class="edge"><title>Node1&#45;&gt;Node6</title>
<path fill="none" stroke="midnightblue" d="M168.091,-174.753C175.227,-166.598 185.799,-154.516 194.408,-144.677"/>
<polygon fill="midnightblue" stroke="midnightblue" points="197.108,-146.906 201.059,-137.075 191.84,-142.296 197.108,-146.906"/>
</g>
<!-- Node7 -->
<g id="node15" class="node"><title>Node7</title>
<polygon fill="none" stroke="#bfbfbf" points="253.158,-117 253.158,-137 300.842,-137 300.842,-117 253.158,-117"/>
<text text-anchor="middle" x="277" y="-123" font-family="Helvetica,sans-Serif" font-size="10.00">stdlib.h</text>
</g>
<!-- Node1&#45;&gt;Node7 -->
<g id="edge16" class="edge"><title>Node1&#45;&gt;Node7</title>
<path fill="none" stroke="midnightblue" d="M179.058,-174.878C198.011,-165.807 227.301,-151.788 248.916,-141.442"/>
<polygon fill="midnightblue" stroke="midnightblue" points="250.441,-144.592 257.95,-137.118 247.419,-138.278 250.441,-144.592"/>
</g>
<!-- Node3 -->
<g id="node5" class="node"><title>Node3</title>
<polygon fill="none" stroke="#bfbfbf" points="-0.00976562,-1 -0.00976562,-21 66.0098,-21 66.0098,-1 -0.00976562,-1"/>
<text text-anchor="middle" x="33" y="-7" font-family="Helvetica,sans-Serif" font-size="10.00">sys/cdefs.h</text>
</g>
<!-- Node2&#45;&gt;Node3 -->
<g id="edge4" class="edge"><title>Node2&#45;&gt;Node3</title>
<path fill="none" stroke="midnightblue" d="M39.679,-58.7527C38.6072,-51.2504 37.0605,-40.4238 35.7254,-31.0781"/>
<polygon fill="midnightblue" stroke="midnightblue" points="39.1756,-30.4797 34.2965,-21.0752 32.2459,-31.4697 39.1756,-30.4797"/>
</g>
<!-- Node4 -->
<g id="node7" class="node"><title>Node4</title>
<polygon fill="none" stroke="#bfbfbf" points="83.707,-1 83.707,-21 140.293,-21 140.293,-1 83.707,-1"/>
<text text-anchor="middle" x="112" y="-7" font-family="Helvetica,sans-Serif" font-size="10.00">stdbool.h</text>
</g>
<!-- Node2&#45;&gt;Node4 -->
<g id="edge6" class="edge"><title>Node2&#45;&gt;Node4</title>
<path fill="none" stroke="midnightblue" d="M52.7242,-58.7527C63.4768,-50.2718 79.6152,-37.543 92.3389,-27.5073"/>
<polygon fill="midnightblue" stroke="midnightblue" points="94.8098,-30.0162 100.494,-21.0752 90.4748,-24.52 94.8098,-30.0162"/>
</g>
<!-- Node5&#45;&gt;Node2 -->
<g id="edge10" class="edge"><title>Node5&#45;&gt;Node2</title>
<path fill="none" stroke="midnightblue" d="M100.276,-116.753C89.5232,-108.272 73.3848,-95.543 60.6611,-85.5073"/>
<polygon fill="midnightblue" stroke="midnightblue" points="62.5252,-82.52 52.506,-79.0752 58.1902,-88.0162 62.5252,-82.52"/>
</g>
<!-- Node5&#45;&gt;Node4 -->
<g id="edge12" class="edge"><title>Node5&#45;&gt;Node4</title>
<path fill="none" stroke="midnightblue" d="M112,-116.671C112,-98.0407 112,-55.8976 112,-31.1428"/>
<polygon fill="midnightblue" stroke="midnightblue" points="115.5,-31.1394 112,-21.1394 108.5,-31.1394 115.5,-31.1394"/>
</g>
</g>
</svg>
