<?xml version="1.0" encoding="UTF-8" standalone="no"?>
<!DOCTYPE svg PUBLIC "-//W3C//DTD SVG 1.1//EN"
 "http://www.w3.org/Graphics/SVG/1.1/DTD/svg11.dtd">
<!-- Generated by graphviz version 2.28.0 (20120824.1043)
 -->
<!-- Title: libchannel.h Pages: 1 -->
<svg width="148pt" height="88pt"
 viewBox="0.00 0.00 148.00 88.00" xmlns="http://www.w3.org/2000/svg" xmlns:xlink="http://www.w3.org/1999/xlink">
<g id="graph1" class="graph" transform="scale(1 1) rotate(0) translate(4 84)">
<title>libchannel.h</title>
<!-- Node1 -->
<g id="node1" class="node"><title>Node1</title>
<polygon fill="#bfbfbf" stroke="black" points="37.313,-59 37.313,-79 106.687,-79 106.687,-59 37.313,-59"/>
<text text-anchor="middle" x="72" y="-65" font-family="Helvetica,sans-Serif" font-size="10.00">libchannel.h</text>
</g>
<!-- Node2 -->
<g id="node3" class="node"><title>Node2</title>
<polygon fill="none" stroke="#bfbfbf" points="-0.00976562,-1 -0.00976562,-21 66.0098,-21 66.0098,-1 -0.00976562,-1"/>
<text text-anchor="middle" x="33" y="-7" font-family="Helvetica,sans-Serif" font-size="10.00">sys/cdefs.h</text>
</g>
<!-- Node1&#45;&gt;Node2 -->
<g id="edge2" class="edge"><title>Node1&#45;&gt;Node2</title>
<path fill="none" stroke="midnightblue" d="M65.5599,-58.7527C60.0511,-50.8427 51.9688,-39.2372 45.235,-29.5683"/>
<polygon fill="midnightblue" stroke="midnightblue" points="47.9073,-27.281 39.3202,-21.0752 42.1631,-31.2815 47.9073,-27.281"/>
</g>
<!-- Node3 -->
<g id="node5" class="node"><title>Node3</title>
<polygon fill="none" stroke="#bfbfbf" points="83.707,-1 83.707,-21 140.293,-21 140.293,-1 83.707,-1"/>
<text text-anchor="middle" x="112" y="-7" font-family="Helvetica,sans-Serif" font-size="10.00">stdbool.h</text>
</g>
<!-- Node1&#45;&gt;Node3 -->
<g id="edge4" class="edge"><title>Node1&#45;&gt;Node3</title>
<path fill="none" stroke="midnightblue" d="M78.6052,-58.7527C84.3135,-50.7611 92.716,-38.9975 99.6644,-29.2698"/>
<polygon fill="midnightblue" stroke="midnightblue" points="102.553,-31.2469 105.518,-21.0752 96.8572,-27.1782 102.553,-31.2469"/>
</g>
</g>
</svg>
