<?xml version="1.0" encoding="UTF-8" standalone="no"?>
<!DOCTYPE svg PUBLIC "-//W3C//DTD SVG 1.1//EN"
 "http://www.w3.org/Graphics/SVG/1.1/DTD/svg11.dtd">
<!-- Generated by graphviz version 2.28.0 (20120824.1043)
 -->
<!-- Title: libchannel&#45;internal.h Pages: 1 -->
<svg width="133pt" height="88pt"
 viewBox="0.00 0.00 133.00 88.00" xmlns="http://www.w3.org/2000/svg" xmlns:xlink="http://www.w3.org/1999/xlink">
<g id="graph1" class="graph" transform="scale(1 1) rotate(0) translate(4 84)">
<title>libchannel&#45;internal.h</title>
<!-- Node1 -->
<g id="node1" class="node"><title>Node1</title>
<polygon fill="#bfbfbf" stroke="black" points="17.249,-59 17.249,-79 122.751,-79 122.751,-59 17.249,-59"/>
<text text-anchor="middle" x="70" y="-65" font-family="Helvetica,sans-Serif" font-size="10.00">libchannel&#45;internal.h</text>
</g>
<!-- Node2 -->
<g id="node3" class="node"><title>Node2</title>
<a xlink:href="libchannel_8c.xhtml" target="_top" xlink:title="Implementation of platform&#45;portable parts.">
<polygon fill="none" stroke="black" points="-0.40625,-1 -0.40625,-21 68.4062,-21 68.4062,-1 -0.40625,-1"/>
<text text-anchor="middle" x="34" y="-7" font-family="Helvetica,sans-Serif" font-size="10.00">libchannel.c</text>
</a>
</g>
<!-- Node1&#45;&gt;Node2 -->
<g id="edge2" class="edge"><title>Node1&#45;&gt;Node2</title>
<path fill="none" stroke="midnightblue" d="M58.5703,-50.2204C52.3366,-40.5235 44.8843,-28.9312 39.8341,-21.0752"/>
<polygon fill="midnightblue" stroke="midnightblue" points="55.7036,-52.2336 64.0553,-58.7527 61.5918,-48.4483 55.7036,-52.2336"/>
</g>
<!-- Node3 -->
<g id="node5" class="node"><title>Node3</title>
<a xlink:href="uds_8c.xhtml" target="_top" xlink:title="UNIX domain socket implementation.">
<polygon fill="none" stroke="black" points="86.0493,-1 86.0493,-21 125.951,-21 125.951,-1 86.0493,-1"/>
<text text-anchor="middle" x="106" y="-7" font-family="Helvetica,sans-Serif" font-size="10.00">uds.c</text>
</a>
</g>
<!-- Node1&#45;&gt;Node3 -->
<g id="edge4" class="edge"><title>Node1&#45;&gt;Node3</title>
<path fill="none" stroke="midnightblue" d="M81.4297,-50.2204C87.6634,-40.5235 95.1157,-28.9312 100.166,-21.0752"/>
<polygon fill="midnightblue" stroke="midnightblue" points="78.4082,-48.4483 75.9447,-58.7527 84.2964,-52.2336 78.4082,-48.4483"/>
</g>
</g>
</svg>
