<?xml version="1.0" encoding="UTF-8" standalone="no"?>
<!DOCTYPE svg PUBLIC "-//W3C//DTD SVG 1.1//EN"
 "http://www.w3.org/Graphics/SVG/1.1/DTD/svg11.dtd">
<!-- Generated by graphviz version 2.28.0 (20120824.1043)
 -->
<!-- Title: message Pages: 1 -->
<svg width="157pt" height="100pt"
 viewBox="0.00 0.00 157.00 100.00" xmlns="http://www.w3.org/2000/svg" xmlns:xlink="http://www.w3.org/1999/xlink">
<g id="graph1" class="graph" transform="scale(1 1) rotate(0) translate(4 96)">
<title>message</title>
<!-- Node1 -->
<g id="node1" class="node"><title>Node1</title>
<polygon fill="#bfbfbf" stroke="black" points="38.7119,-1 38.7119,-21 95.2881,-21 95.2881,-1 38.7119,-1"/>
<text text-anchor="middle" x="67" y="-7" font-family="Helvetica,sans-Serif" font-size="10.00">message</text>
</g>
<!-- Node2 -->
<g id="node2" class="node"><title>Node2</title>
<a xlink:href="structchannel.xhtml" target="_top" xlink:title="[opaque] A communications channel for sending data and capabilities (eg file descriptors and channels...">
<polygon fill="none" stroke="black" points="-0.514648,-71 -0.514648,-91 50.5146,-91 50.5146,-71 -0.514648,-71"/>
<text text-anchor="middle" x="25" y="-77" font-family="Helvetica,sans-Serif" font-size="10.00">channel</text>
</a>
</g>
<!-- Node2&#45;&gt;Node1 -->
<g id="edge2" class="edge"><title>Node2&#45;&gt;Node1</title>
<path fill="none" stroke="#9a32cd" stroke-dasharray="5,2" d="M32.7733,-61.4875C35.9686,-54.553 39.9222,-46.7291 44.1924,-40 48.4251,-33.3298 54.0164,-26.4427 58.6035,-21.1679"/>
<polygon fill="#9a32cd" stroke="#9a32cd" points="29.5085,-60.217 28.6857,-70.7798 35.916,-63.0356 29.5085,-60.217"/>
<text text-anchor="middle" x="66.4038" y="-42" font-family="Helvetica,sans-Serif" font-size="10.00"> channels</text>
</g>
<!-- Node3 -->
<g id="node4" class="node"><title>Node3</title>
<a xlink:href="structmessage__data.xhtml" target="_top" xlink:title="Data contained in a message.">
<polygon fill="none" stroke="black" points="68.1997,-71 68.1997,-91 149.8,-91 149.8,-71 68.1997,-71"/>
<text text-anchor="middle" x="109" y="-77" font-family="Helvetica,sans-Serif" font-size="10.00">message_data</text>
</a>
</g>
<!-- Node3&#45;&gt;Node1 -->
<g id="edge4" class="edge"><title>Node3&#45;&gt;Node1</title>
<path fill="none" stroke="#9a32cd" stroke-dasharray="5,2" d="M99.5271,-61.7133C95.7974,-54.8056 91.3667,-46.9411 87,-40 82.9283,-33.5277 77.9283,-26.5277 73.9462,-21.1458"/>
<polygon fill="#9a32cd" stroke="#9a32cd" points="96.6321,-63.726 104.401,-70.9301 102.82,-60.4538 96.6321,-63.726"/>
<text text-anchor="middle" x="106.121" y="-42" font-family="Helvetica,sans-Serif" font-size="10.00"> data</text>
</g>
</g>
</svg>
