<?xml version="1.0" encoding="UTF-8" standalone="no"?>
<!DOCTYPE svg PUBLIC "-//W3C//DTD SVG 1.1//EN"
 "http://www.w3.org/Graphics/SVG/1.1/DTD/svg11.dtd">
<!-- Generated by graphviz version 2.28.0 (20120824.1043)
 -->
<!-- Title: uds.c Pages: 1 -->
<svg width="523pt" height="320pt"
 viewBox="0.00 0.00 523.00 320.00" xmlns="http://www.w3.org/2000/svg" xmlns:xlink="http://www.w3.org/1999/xlink">
<g id="graph1" class="graph" transform="scale(1 1) rotate(0) translate(4 316)">
<title>uds.c</title>
<!-- Node1 -->
<g id="node1" class="node"><title>Node1</title>
<polygon fill="#bfbfbf" stroke="black" points="355.049,-291 355.049,-311 394.951,-311 394.951,-291 355.049,-291"/>
<text text-anchor="middle" x="375" y="-297" font-family="Helvetica,sans-Serif" font-size="10.00">uds.c</text>
</g>
<!-- Node2 -->
<g id="node3" class="node"><title>Node2</title>
<a xlink:href="libchannel_8h.xhtml" target="_top" xlink:title="Public API for libchannel.">
<polygon fill="none" stroke="black" points="211.313,-175 211.313,-195 280.687,-195 280.687,-175 211.313,-175"/>
<text text-anchor="middle" x="246" y="-181" font-family="Helvetica,sans-Serif" font-size="10.00">libchannel.h</text>
</a>
</g>
<!-- Node1&#45;&gt;Node2 -->
<g id="edge2" class="edge"><title>Node1&#45;&gt;Node2</title>
<path fill="none" stroke="midnightblue" d="M354.856,-297.011C330.125,-292.276 288.572,-280.683 265,-254 253.101,-240.53 248.599,-220.183 246.925,-205.255"/>
<polygon fill="midnightblue" stroke="midnightblue" points="250.399,-204.792 246.12,-195.1 243.421,-205.345 250.399,-204.792"/>
</g>
<!-- Node8 -->
<g id="node20" class="node"><title>Node8</title>
<a xlink:href="libchannel-internal_8h.xhtml" target="_top" xlink:title="libchannel&#45;internal.h">
<polygon fill="none" stroke="black" points="274.249,-233 274.249,-253 379.751,-253 379.751,-233 274.249,-233"/>
<text text-anchor="middle" x="327" y="-239" font-family="Helvetica,sans-Serif" font-size="10.00">libchannel&#45;internal.h</text>
</a>
</g>
<!-- Node1&#45;&gt;Node8 -->
<g id="edge24" class="edge"><title>Node1&#45;&gt;Node8</title>
<path fill="none" stroke="midnightblue" d="M367.074,-290.753C360.084,-282.598 349.728,-270.516 341.294,-260.677"/>
<polygon fill="midnightblue" stroke="midnightblue" points="343.944,-258.39 334.779,-253.075 338.629,-262.946 343.944,-258.39"/>
</g>
<!-- Node9 -->
<g id="node24" class="node"><title>Node9</title>
<polygon fill="none" stroke="#bfbfbf" points="398.214,-233 398.214,-253 449.786,-253 449.786,-233 398.214,-233"/>
<text text-anchor="middle" x="424" y="-239" font-family="Helvetica,sans-Serif" font-size="10.00">assert.h</text>
</g>
<!-- Node1&#45;&gt;Node9 -->
<g id="edge30" class="edge"><title>Node1&#45;&gt;Node9</title>
<path fill="none" stroke="midnightblue" d="M383.091,-290.753C390.227,-282.598 400.799,-270.516 409.408,-260.677"/>
<polygon fill="midnightblue" stroke="midnightblue" points="412.108,-262.906 416.059,-253.075 406.84,-258.296 412.108,-262.906"/>
</g>
<!-- Node10 -->
<g id="node26" class="node"><title>Node10</title>
<polygon fill="none" stroke="#bfbfbf" points="468.158,-233 468.158,-253 515.842,-253 515.842,-233 468.158,-233"/>
<text text-anchor="middle" x="492" y="-239" font-family="Helvetica,sans-Serif" font-size="10.00">stdlib.h</text>
</g>
<!-- Node1&#45;&gt;Node10 -->
<g id="edge32" class="edge"><title>Node1&#45;&gt;Node10</title>
<path fill="none" stroke="midnightblue" d="M394.058,-290.878C413.011,-281.807 442.301,-267.788 463.916,-257.442"/>
<polygon fill="midnightblue" stroke="midnightblue" points="465.441,-260.592 472.95,-253.118 462.419,-254.278 465.441,-260.592"/>
</g>
<!-- Node3 -->
<g id="node5" class="node"><title>Node3</title>
<polygon fill="none" stroke="#bfbfbf" points="-0.00976562,-1 -0.00976562,-21 66.0098,-21 66.0098,-1 -0.00976562,-1"/>
<text text-anchor="middle" x="33" y="-7" font-family="Helvetica,sans-Serif" font-size="10.00">sys/cdefs.h</text>
</g>
<!-- Node2&#45;&gt;Node3 -->
<g id="edge4" class="edge"><title>Node2&#45;&gt;Node3</title>
<path fill="none" stroke="midnightblue" d="M211.085,-178.304C179.167,-171.989 131.514,-159.703 95,-138 63.3911,-119.212 50.9607,-113.59 36,-80 29.1713,-64.6681 28.9964,-45.4174 30.1941,-31.3157"/>
<polygon fill="midnightblue" stroke="midnightblue" points="33.6823,-31.618 31.348,-21.2835 26.7282,-30.8181 33.6823,-31.618"/>
</g>
<!-- Node4 -->
<g id="node7" class="node"><title>Node4</title>
<polygon fill="none" stroke="#bfbfbf" points="210.707,-59 210.707,-79 267.293,-79 267.293,-59 210.707,-59"/>
<text text-anchor="middle" x="239" y="-65" font-family="Helvetica,sans-Serif" font-size="10.00">stdbool.h</text>
</g>
<!-- Node2&#45;&gt;Node4 -->
<g id="edge6" class="edge"><title>Node2&#45;&gt;Node4</title>
<path fill="none" stroke="midnightblue" d="M245.427,-174.671C244.283,-156.041 241.695,-113.898 240.175,-89.1428"/>
<polygon fill="midnightblue" stroke="midnightblue" points="243.668,-88.9061 239.561,-79.1394 236.681,-89.3351 243.668,-88.9061"/>
</g>
<!-- Node5 -->
<g id="node9" class="node"><title>Node5</title>
<polygon fill="none" stroke="#bfbfbf" points="157.209,-1 157.209,-21 208.791,-21 208.791,-1 157.209,-1"/>
<text text-anchor="middle" x="183" y="-7" font-family="Helvetica,sans-Serif" font-size="10.00">stddef.h</text>
</g>
<!-- Node2&#45;&gt;Node5 -->
<g id="edge8" class="edge"><title>Node2&#45;&gt;Node5</title>
<path fill="none" stroke="midnightblue" d="M252.64,-174.697C267.431,-152.729 299.963,-96.5873 276,-58 263.505,-37.8799 239.312,-26.293 218.734,-19.7814"/>
<polygon fill="midnightblue" stroke="midnightblue" points="219.567,-16.3792 208.989,-16.9773 217.631,-23.1062 219.567,-16.3792"/>
</g>
<!-- Node6 -->
<g id="node11" class="node"><title>Node6</title>
<a xlink:href="libchannel-message_8h.xhtml" target="_top" xlink:title="Declaration of message.">
<polygon fill="none" stroke="black" points="104.36,-117 104.36,-137 217.64,-137 217.64,-117 104.36,-117"/>
<text text-anchor="middle" x="161" y="-123" font-family="Helvetica,sans-Serif" font-size="10.00">libchannel&#45;message.h</text>
</a>
</g>
<!-- Node2&#45;&gt;Node6 -->
<g id="edge10" class="edge"><title>Node2&#45;&gt;Node6</title>
<path fill="none" stroke="midnightblue" d="M231.964,-174.753C218.72,-166.027 198.651,-152.805 183.23,-142.646"/>
<polygon fill="midnightblue" stroke="midnightblue" points="185.051,-139.654 174.775,-137.075 181.2,-145.5 185.051,-139.654"/>
</g>
<!-- Node6&#45;&gt;Node3 -->
<g id="edge12" class="edge"><title>Node6&#45;&gt;Node3</title>
<path fill="none" stroke="midnightblue" d="M116.555,-116.925C94.3009,-110.228 68.6279,-98.8838 52,-80 40.1225,-66.5111 35.6179,-46.1666 33.9368,-31.2447"/>
<polygon fill="midnightblue" stroke="midnightblue" points="37.4113,-30.7838 33.1263,-21.0942 30.4335,-31.3411 37.4113,-30.7838"/>
</g>
<!-- Node6&#45;&gt;Node4 -->
<g id="edge14" class="edge"><title>Node6&#45;&gt;Node4</title>
<path fill="none" stroke="midnightblue" d="M173.88,-116.753C185.92,-108.109 204.106,-95.0518 218.203,-84.9314"/>
<polygon fill="midnightblue" stroke="midnightblue" points="220.278,-87.7504 226.36,-79.0752 216.195,-82.0642 220.278,-87.7504"/>
</g>
<!-- Node6&#45;&gt;Node5 -->
<g id="edge16" class="edge"><title>Node6&#45;&gt;Node5</title>
<path fill="none" stroke="midnightblue" d="M162.8,-116.671C166.396,-98.0407 174.529,-55.8976 179.306,-31.1428"/>
<polygon fill="midnightblue" stroke="midnightblue" points="182.778,-31.6215 181.236,-21.1394 175.905,-30.295 182.778,-31.6215"/>
</g>
<!-- Node7 -->
<g id="node16" class="node"><title>Node7</title>
<a xlink:href="libchannel-array_8h.xhtml" target="_top" xlink:title="Something like bounded type&#45;safe arrays in C.">
<polygon fill="none" stroke="black" points="60.625,-59 60.625,-79 155.375,-79 155.375,-59 60.625,-59"/>
<text text-anchor="middle" x="108" y="-65" font-family="Helvetica,sans-Serif" font-size="10.00">libchannel&#45;array.h</text>
</a>
</g>
<!-- Node6&#45;&gt;Node7 -->
<g id="edge18" class="edge"><title>Node6&#45;&gt;Node7</title>
<path fill="none" stroke="midnightblue" d="M152.248,-116.753C144.453,-108.516 132.866,-96.2738 123.505,-86.3824"/>
<polygon fill="midnightblue" stroke="midnightblue" points="126.005,-83.9323 116.589,-79.0752 120.921,-88.744 126.005,-83.9323"/>
</g>
<!-- Node7&#45;&gt;Node3 -->
<g id="edge20" class="edge"><title>Node7&#45;&gt;Node3</title>
<path fill="none" stroke="midnightblue" d="M95.6153,-58.7527C84.1477,-50.1903 66.881,-37.2978 53.3821,-27.2186"/>
<polygon fill="midnightblue" stroke="midnightblue" points="55.2611,-24.2536 45.1543,-21.0752 51.0731,-29.8626 55.2611,-24.2536"/>
</g>
<!-- Node7&#45;&gt;Node5 -->
<g id="edge22" class="edge"><title>Node7&#45;&gt;Node5</title>
<path fill="none" stroke="midnightblue" d="M120.385,-58.7527C131.852,-50.1903 149.119,-37.2978 162.618,-27.2186"/>
<polygon fill="midnightblue" stroke="midnightblue" points="164.927,-29.8626 170.846,-21.0752 160.739,-24.2536 164.927,-29.8626"/>
</g>
<!-- Node8&#45;&gt;Node2 -->
<g id="edge26" class="edge"><title>Node8&#45;&gt;Node2</title>
<path fill="none" stroke="midnightblue" d="M313.624,-232.753C301.122,-224.109 282.236,-211.052 267.597,-200.931"/>
<polygon fill="midnightblue" stroke="midnightblue" points="269.343,-197.883 259.127,-195.075 265.362,-203.641 269.343,-197.883"/>
</g>
<!-- Node8&#45;&gt;Node4 -->
<g id="edge28" class="edge"><title>Node8&#45;&gt;Node4</title>
<path fill="none" stroke="midnightblue" d="M322.269,-232.753C308.302,-205.454 267.063,-124.85 248.384,-88.3406"/>
<polygon fill="midnightblue" stroke="midnightblue" points="251.425,-86.6015 243.755,-79.2932 245.194,-89.7899 251.425,-86.6015"/>
</g>
</g>
</svg>
